<?xml version="1.0" encoding="utf-8"?>
<!-- Generator: Adobe Illustrator 25.2.1, SVG Export Plug-In . SVG Version: 6.00 Build 0)  -->
<svg version="1.1"
	 id="Layer_1" shape-rendering="geometricPrecision" text-rendering="geometricPrecision" image-rendering="optimizeQuality"
	 xmlns="http://www.w3.org/2000/svg" xmlns:xlink="http://www.w3.org/1999/xlink" x="0px" y="0px" viewBox="0 0 1268.1 1724.5"
	 style="enable-background:new 0 0 1268.1 1724.5;" xml:space="preserve">
<style type="text/css">
	.st0{opacity:0.993;fill-rule:evenodd;clip-rule:evenodd;fill:#480024;enable-background:new    ;}
	.st1{fill-rule:evenodd;clip-rule:evenodd;fill:#490125;}
	.st2{fill-rule:evenodd;clip-rule:evenodd;fill:#93BDE4;}
	.st3{opacity:0.753;fill-rule:evenodd;clip-rule:evenodd;fill:#5C3157;enable-background:new    ;}
	.st4{fill-rule:evenodd;clip-rule:evenodd;fill:#FEFEFE;}
	.st5{fill-rule:evenodd;clip-rule:evenodd;fill:#FEE407;}
	.st6{fill-rule:evenodd;clip-rule:evenodd;fill:#94BDE2;}
	.st7{fill-rule:evenodd;clip-rule:evenodd;fill:#490226;}
	.st8{fill-rule:evenodd;clip-rule:evenodd;fill:#FCFDFE;}
	.st9{fill-rule:evenodd;clip-rule:evenodd;fill:#FDFDFE;}
	.st10{fill-rule:evenodd;clip-rule:evenodd;fill:#FBFCFE;}
	.st11{fill-rule:evenodd;clip-rule:evenodd;fill:#97C0E5;}
	.st12{fill-rule:evenodd;clip-rule:evenodd;fill:#92B9E0;}
	.st13{fill-rule:evenodd;clip-rule:evenodd;fill:#99C1E6;}
	.st14{fill-rule:evenodd;clip-rule:evenodd;fill:#96BFE5;}
	.st15{fill-rule:evenodd;clip-rule:evenodd;fill:#490225;}
	.st16{fill-rule:evenodd;clip-rule:evenodd;fill:#480125;}
	.st17{fill-rule:evenodd;clip-rule:evenodd;fill:#93BCE3;}
</style>
<path class="st0" d="M1257.4,94.5c-49.4-17.6-99.8-32.2-151-43.5C930.7,13.6,753.1-3.3,573.4,0.5C469,3.1,365,12.2,261.4,28
	C168.9,41.6,78.6,63.7-9.6,94.5c-1.2,399.3-1.3,798.7-0.5,1198c5.2,55.7,26.2,104.4,63,146c31.7,34,68.2,61.5,109.5,82.5
	c54.1,27.2,110.7,49.3,169,66c46.9,13.5,93.9,26.9,141,40c18,5,35.7,11,53,18c11.3,5.3,22,11.6,32,19c22.2,20,44.2,40.2,66,60.5
	c21.2-19.3,42.2-38.8,63-58.5c14.9-11.5,31.2-20.5,49-27c55.2-16.6,110.5-32.6,166-48c24.2-7.1,48.2-14.7,72-23
	c45-15.4,88.5-34.8,130-58c29.7-17.4,56.9-38.2,81.5-62.5c45-46.8,69-102.8,72-168C1257.4,884.5,1257.6,489.5,1257.4,94.5z
	 M1218.9,1279.5c-3.2,54.6-23.5,101.6-61,141c-37,35.4-79.1,63.3-126.5,83.5c-46.9,20-95,37-144,51c-48.4,13.5-96.7,27.2-145,41
	c-26.7,7.7-51.3,19.3-74,35c-15.5,13-30.5,26.5-45,40.5c-15.4-14.8-31.4-29-48-42.5c-13.6-9-28-16.7-43-23
	c-17.5-6.1-35.2-11.7-53-17c-68-17.8-135.3-37.8-202-60c-45.6-15.5-89-35.9-130-61c-43.5-26.5-77-62.3-100.5-107.5
	c-11.4-24.8-17.7-50.8-19-78c-0.8-386.7-0.7-773.3,0.5-1160C86,103.3,144.8,88.1,204.4,77c115.9-21.4,232.5-33.9,350-37.5
	c170.6-4.8,339.6,9,507,41.5c53.4,10.7,106.2,24.6,158,41.5C1219.6,508.2,1219.4,893.9,1218.9,1279.5z"/>
<path class="st1" d="M556.4,64.5c140.8-3.3,280.8,5.6,420,26.5c73.4,11.3,145.9,27.8,217,49.5c1.2,379.3,1.3,758.7,0.5,1138
	c-3.3,54.8-25.5,100.3-66.5,136.5c-34,28.6-71.7,51.6-113,69c-42.7,17.9-86.5,33.3-131,46c-49.4,13.7-98.8,27.7-148,42
	c-43.4,11.8-80.7,33.7-112,65.5c-15.1-15.3-31.8-28.4-50-39.5c-25.3-13.6-52.1-24.1-80-31c-47-13.2-94-26.5-141-40
	c-54.3-15.8-107.2-36.2-158-61c-34.8-17.4-65.6-40.3-92.5-68.5c-30.4-33.7-46.7-73.4-49-119c-0.8-379.3-0.7-758.7,0.5-1138
	c75.2-23.1,152.1-40.4,230-51.5C374.1,75.5,465.1,67.3,556.4,64.5"/>
<path class="st2" d="M1167.4,158.5c1,371.3,1.3,742.6,1,1114c-0.8,41.4-14.9,77.4-42.5,108c-31.2,31.9-67.4,56.7-108.5,74.5
	c-37.4,16.7-75.8,31.1-115,43c-50.2,14.8-100.5,29.1-151,43c-33,8.2-64.3,20.6-94,37c-11.8,7.3-23,15.5-33.5,24.5
	c-24.2-19.7-51-35.2-80.5-46.5c-70.3-20.9-140.6-41.5-211-62c-54.8-16.5-106.8-39.2-156-68c-27-17-50.1-38.1-69.5-63.5
	c-16.2-23.1-25.6-48.7-28-77c-0.5-375.7-0.7-751.3-0.5-1127c136.3-36.4,275-58.2,416-65.5c186.2-10.3,370.9,2,554,37
	C1088.4,138.1,1128.1,147.6,1167.4,158.5"/>
<path class="st3" d="M1167.4,158.5c1.3,185.3,2,371,2,557c0,185.8-0.3,371.5-1,557C1168.8,901.1,1168.4,529.8,1167.4,158.5"/>
<path class="st4" d="M256.4,168.5c6.8,10.5,12.8,21.7,18,33.5c12,1.7,24,3.7,36,6c-9,8.7-17.7,17.7-26,27c3,12,4.8,24.2,5.5,36.5
	c-10.6-6.1-21.5-11.7-32.5-17c-11,5.3-21.9,10.9-32.5,17c0.9-12.3,2.7-24.5,5.5-36.5c-8.3-9.3-17-18.3-26-27c11.8-2.8,23.9-4.8,36-6
	C246.4,191.2,251.8,180,256.4,168.5"/>
<path class="st5" d="M1078.9,326.5c-0.5-9-3-17.3-7.5-25c-2.7,7.1-5.5,14.1-8.5,21c-2.8,4.8-6.2,8.9-10.5,12.5
	c-8.2,4.3-16.5,8.3-25,12c-1.6,1-3.1,2.2-4.5,3.5c2.3-7.2,3.5-14.7,3.5-22.5c0.4-6.1-0.6-11.9-3-17.5c-3.9,12.5-10.9,23-21,31.5
	c-12.3,6.8-24.3,14.2-36,22c-4.1,3.1-8,6.7-11.5,10.5c1.9-6.1,2.8-12.4,2.5-19c0.7-6.8-0.6-13.2-4-19c-1.8,10.4-6.8,18.9-15,25.5
	l-32,19c-13.7,10.5-21.8,24.4-24.5,41.5c-0.2,10.7-0.7,21.4-1.5,32c-5,3.6-9.6,7.6-14,12c-2,2.7-4.3,5-7,7
	c-7.6,10.4-13.6,21.9-18,34c-5.7,23.2-5,46.2,2,69c2.9,7.5,6.1,14.8,9.5,22c11.3,20,25.1,38.5,41,55c18.4,17.7,35.4,36.8,51,57
	c9.5,13.3,14.7,28.1,15.5,44.5c-1.6,34.9-19.8,53.1-54.5,54.5c-21.4-1.1-41.2-7.1-59.5-18c-13.8-7.1-27.8-13.8-42-20
	c-1.2-7.7-2.7-15.4-4.5-23c-8.1-24.9-18.5-49-31-72c-12-24-17-49.3-15-76c2.8-13.7,5.8-27.4,9-41c0.6-5.1,0.6-10.1,0-15
	c12.7,10.9,26.9,13.9,42.5,9c-11.7-10-16.2-22.7-13.5-38c2.6-14.3,4.8-28.6,6.5-43c-0.1-6.2-1.3-12.3-3.5-18l-6-12
	c10.6,9,22.7,12.5,36.5,10.5c1.8-0.2,3.1-1,4-2.5c-18.6-12.8-23.4-29.8-14.5-51l0.5-9.5c0.6-7.2-1.1-13.9-5-20c3,0.6,6,1.6,9,3
	c6.3,0.7,12.7,0.7,19,0c4.1-0.6,7.4-2.5,10-5.5c-7.3-2.1-12.8-6.4-16.5-13c-6.6-17.9-13-35.9-19-54c-3-7.3-7.2-13.8-12.5-19.5
	c12.8,0.6,22.5-4.6,29-15.5c-10.3-1.5-19.3-5.6-27-12.5c-12.5-12.5-24.4-25.7-35.5-39.5c-5.3-5.8-11.2-11.2-17.5-16
	c-27.3-21.5-58.1-28.9-92.5-22c-1.3-0.4-1.6-1-1-2c5.9-5.5,12-10.7,18.5-15.5c-9.6-3.8-19.6-5.8-30-6c-28.4-2.4-51.9,7.1-70.5,28.5
	c2.2-12.8-1.3-23.8-10.5-33l-5.5,11c-11.2,10.6-23.1,20.4-35.5,29.5c-14.8,12.7-22.8,28.9-24,48.5c-11.1,7.3-22.1,14.8-33,22.5
	c-8.3,7.6-14.1,16.8-17.5,27.5c-17.9,12.9-34.9,26.9-51,42c1.2,4.5,3.1,8.8,5.5,13c2.9-1.9,5.5-4.1,8-6.5c0.7-0.7,1.3-0.7,2,0
	c-5.9,10.1-5,19.6,2.5,28.5c8.2,9.3,18,16,29.5,20c-1.2-5.9-1.7-12-1.5-18c3-5.1,7.5-8.1,13.5-9c11.8-2.8,23.8-3.6,36-2.5
	c6.6,2.7,8.7,7.5,6.5,14.5c-1,4.8-2.4,9.4-4,14c-3,8.2-8.5,13.8-16.5,17c-5.3,2.7-10.9,3.5-17,2.5l-15-7.5c-0.3,7,0.8,13.9,3,20.5
	c-2.9,8-2.4,15.9,1.5,23.5c6.5,10.5,15,19,25.5,25.5c1.6,0.5,3.3,0.7,5,0.5c-1.5-7.3-2.5-14.6-3-22c1.8,0,3.5,0.5,5,1.5
	c2.7,3,5.7,5.5,9,7.5c2.8,2,5.8,2.3,9,1c-2.1-4.5-3.3-9.2-3.5-14c13.3-13,28.3-24.3,44.5-33.5c10.5-2.5,17.3,1.3,20.5,11.5
	c2.4,17.7-3.8,31.5-18.5,41.5c-10.5,7-20.8,14.1-31,21.5c-6.3,5.5-12.2,11.5-17.5,18c-7.9,12.2-16.1,24.2-24.5,36
	c-7.2,12.1-17.9,18.3-32,18.5c9.7-4.9,18-11.4,25-19.5c3.2-5.1,5.9-10.4,8-16c-22.4-0.5-44.1-4.7-65-12.5
	c-24.1-12.2-48.1-24.7-72-37.5c-11.1-3.8-22.5-6.6-34-8.5c-7.7-7.7-13.9-16.6-18.5-26.5c-6.8-17.7-10.5-36-11-55
	c-1.7-4.2-4.5-7.2-8.5-9c-2.2-0.7-4.6-1.2-7-1.5c-5.9-13.2-16-20-30.5-20.5c-7.7-0.7-13.9,2-18.5,8c12.4,2.1,20.4,9.1,24,21
	c-1,3.3-2,6.7-3,10c-6.3,0-12,2-17,6c-8.3-3.7-17-4.8-26-3.5c-12,3-18.5,10.5-19.5,22.5c2.1-1.3,4.3-2.5,6.5-3.5
	c10.3-0.9,19.1,2.2,26.5,9.5c0,5.4,1.5,10.2,4.5,14.5c-7.7,4.2-12.4,10.7-14,19.5c-4.5,1.3-8.9,3.2-13,5.5
	c-11.1,6.7-15.1,16.2-12,28.5c2.2-4.4,5.5-7.5,10-9.5c5.6-0.7,11.4-0.7,17,0c1.1,0.2,2.1,0.8,3,1.5c3.3,5.5,7.9,9.3,14,11.5
	c8.2,0.6,16.3,0.5,24.5-0.5c6-0.7,10.3,1.7,13,7c0.7,4.3,0.7,8.7,0,13c-0.8,1.8-2,3.3-3.5,4.5c-4.7,1.5-9.4,3.1-14,5
	c-5.5,4.3-8.2,10-8,17c-3.7,0.7-7.3,0.7-11,0c-4-1.6-7.7-3.8-11-6.5c-0.5,4.8,0.3,9.4,2.5,14c7.7,15.9,19.5,20.1,35.5,12.5
	c3-0.5,6-0.7,9-0.5c4.3-0.6,8.3-2.1,12-4.5c8-8.4,17.3-14.7,28-19c20.1-0.1,37.5,6.7,52,20.5c18.9,15.1,31.2,34.4,37,58
	c6.7-5.7,10.5-13.1,11.5-22c16.1,12.4,31.3,26,45.5,40.5c-36,27.7-72.4,55-109,82c-5.8,2.2-11.5,1.9-17-1c-5.3-5.7-11-11-17-16
	c-8.8-5.2-17.8-5.7-27-1.5c-5.4-1.4-10.7-1.3-16,0.5c-14.3,7.1-21,18.6-20,34.5c5.2-7.1,12.2-10.1,21-9c0.4,6.2,2.4,11.9,6,17
	c-3.8,3-7.2,6.5-10,10.5c-21.4,4-30.8,16.9-28,38.5c2.4-4.2,5.4-8.1,9-11.5c5.7-3.6,11.5-4.1,17.5-1.5c2.9,12.5,10.7,19.7,23.5,21.5
	c-2.7,6.7-2.4,13.4,1,20c-3.3,10.6-2.2,20.8,3.5,30.5c1.2,3,3.4,4.7,6.5,5c-0.3-7.2,1-14,4-20.5c11.8,0.6,21-3.9,27.5-13.5
	c0.8,1.9,1.3,3.9,1.5,6c3.3,5.4,8.2,8.8,14.5,10c1.7,6.3,4.2,12.4,7.5,18c2,1.6,4,3.3,6,5c1-2.2,1.3-4.6,1-7c-0.3-6,0.2-12.1,1.5-18
	c4.5-5.8,8.2-12.2,11-19c1.9-13.1,4.3-26.1,7-39c6.1-12.4,15.3-21.9,27.5-28.5c36.9-21.3,76.5-32.6,119-34
	c6.2,7.6,12.5,15.2,19,22.5c10.6,12.2,21.8,23.8,33.5,35c0.7,0.7,0.7,1.3,0,2c-9,7.9-19.5,12.8-31.5,14.5c-17.3,1.8-34.6,3.1-52,4
	c-12.3,1.3-23.3,5.6-33,13c-6.4,6.7-12.4,13.7-18,21c-7.9,5-15.9,5.5-24,1.5c-1.8-1.1-3.8-1.8-6-2c-0.4,5.5,0.3,10.8,2,16
	c6.7,13.2,17.4,18.7,32,16.5l-3,3c-10.9,5.8-21.9,6-33,0.5c-1.1,1.2-1.3,2.6-0.5,4c7.8,18.2,21.6,25.8,41.5,23
	c1.3,8.7,4.5,16.7,9.5,24c7.3,9.6,15,19,23,28c3.1,3.9,5.5,8.3,7,13c2.5,14.6-2.7,25.4-15.5,32.5c-25.2,12.4-51.9,17.1-80,14
	c-7.5-1.3-14.6-4-21-8l-30-24c-4.1-1.9-8.5-2.7-13-2.5c-5.9,2.4-10.9,1.2-15-3.5c-14.7-7.8-27.5-5.7-38.5,6.5
	c-5.8,9-4.3,11.1,4.5,6.5c7.5-2.4,12.8-0.1,16,7c-0.9,1.6-1.9,3.1-3,4.5c-6.5,0-13.2,0.1-20,0.5c-15.9,6.6-22.2,18.4-19,35.5
	c2.2-2.6,4.6-5.1,7-7.5c4.1-3.2,8.8-4.2,14-3c-1.6,2.7-2.7,5.5-3.5,8.5c-0.2,4.4-0.7,8.7-1.5,13c-10.6,7.3-14.4,17.3-11.5,30
	c0.3,4.1,1.6,7.8,4,11c2.5-5.6,5.5-11,9-16c1.8-1.6,3.8-2.9,6-4c6.5,6.4,14,11.4,22.5,15c-2.9,15.1-2.4,30.1,1.5,45
	c0.6,1.5,1.4,2.8,2.5,4c2.6-6.6,5.1-13.3,7.5-20c1.3-2.1,2.8-4.1,4.5-6c7.6,7,16.6,10.7,27,11c10,0,19.7-1.8,29-5.5
	c15-6.7,29.4-14.8,43-24c8.9-5.5,18.6-8.6,29-9.5c15.3,0.6,20,8,14,22c10.3,1.1,20.3-0.4,30-4.5c13.3-7,26-15,38-24
	c8.6-5.3,18-7.3,28-6c9.7,2.3,19.3,4.7,29,7c3.6,0.7,7.4,0.7,11,0c10.5-1.3,17.5-6.8,21-16.5c-3.7,0.2-7.3,0-11-0.5
	c-9.6-1.6-16.9-6.4-22-14.5c0.3-0.3,0.7-0.7,1-1c3.6,1.5,7.2,2.6,11,3.5c18.7,4.3,32.4-1.9,41-18.5c0-1.3-0.7-2-2-2
	c-4.8,1.2-9.8,1.3-15,0.5c-21-7.5-32.8-22.3-35.5-44.5c-1.7-28.9,11.1-47.6,38.5-56c1.3-5.2,3.2-10.2,5.5-15
	c7.6-13.5,14.9-27.2,22-41c1.1-5.9,1.8-12,2-18c5.6,11.2,5.9,22.5,1,34c-5.1,11.1-10.4,22.1-16,33c-7.4,18.1-9.3,36.8-5.5,56
	c2.4,7.5,5.9,14.5,10.5,21c6,7,12.3,13.7,19,20c7.1,9.3,9.2,19.6,6.5,31c-1.4,5.5-3.5,10.9-6,16h7c15.1-4.5,26.5-13.8,34-28
	c2,1.3,4,2.7,6,4c11.1,9,14.1,20.4,9,34c10.1-0.6,18.4-4.6,25-12c1.7-2,3.4-4,5-6c4.5-7.7,8.2-16,11-24.5c11.6-0.9,22.9,0.4,34,4
	c8,2.8,12.3,8.3,13,16.5c-0.9,4.1-2,8.1-3.5,12c-14.6,27.3-35.8,47.8-63.5,61.5c-9.9,4.4-20.2,6.4-31,6c-6.5-3.2-12.6-7.2-18-12
	c-6.2-2.9-12.5-3.2-19-1c-3.2,2.2-6,4.7-8.5,7.5c-20.6-6.9-34.8-0.3-42.5,20c-1.7,0.8-3.3,1.7-5,2.5c-8.9,8.3-12.9,18.5-12,30.5
	c3.9-3.4,8.3-6.3,13-8.5c3.3-0.7,6.7-0.7,10,0c2.1,3,4.5,5.8,7,8.5c-15.7,9.7-22.5,23.7-20.5,42c0.4,1.5,1.3,2,2.5,1.5
	c2.9-5.2,6.6-9.9,11-14c3.9-3,8.2-4,13-3c6.1,8.4,14.5,12.6,25,12.5c-0.2,8.3,0,16.7,0.5,25c0.3,1.5,1,2.9,2,4
	c5.6-7.5,11.8-14.5,18.5-21c1.1-1.1,2.4-1.3,4-0.5c5.7,3.9,12.1,6,19,6.5c24.5-1.8,45-11.8,61.5-30l32-42c3.9-4.2,8-8,12.5-11.5
	c4.7-2.4,9.7-3.1,15-2c4.4,2.5,6.1,6.4,5,11.5c8.2,0,14.7-3.3,19.5-10c6.9-12.9,13.6-25.9,20-39c13.9-23.6,31.3-44.6,52-63
	c1-1.7,2-3.3,3-5c0.8-1.4,0.6-2.8-0.5-4c-3.6,2.2-7.6,3.2-12,3c-4.6,0.5-8.6-0.9-12-4c6.5-4,12.8-8.1,19-12.5
	c11.4-8.4,20.2-18.9,26.5-31.5c2.9-5.4,3.7-11.1,2.5-17c-3.4,2.4-7.1,4.2-11,5.5c-8.5,2.1-17.3,2.8-26,2c1.9-0.7,3.2-1.9,4-3.5
	c8.6-13.1,11.4-27.4,8.5-43c-1.1-4.6-3-9-5.5-13c-13.6,27.5-35.6,39.1-66,35c-9.3-1.7-17.7-5.5-25-11.5
	c-16.2-15.7-22.7-34.9-19.5-57.5l11.5-52c2.8,0.5,5.4,1.4,8,2.5c11.9,6.1,23.9,11.9,36,17.5c7.4,3.6,15.1,6.6,23,9
	c7.2,2.1,14.6,3.6,22,4.5c32.1,4.9,59.6-3.9,82.5-26.5c20.5-25.8,26.9-54.8,19-87c-7-22.3-18.3-41.9-34-59c-19.7-20.7-39-41.7-58-63
	c-11.5-14.3-19.8-30.3-25-48c-7.2-29.7,0.5-54.7,23-75c16,7.7,33,13.2,50.5,16.5c33.4,5.6,61.4-4,84-29c10.4-8.7,22.4-13.2,36-13.5
	c0.2-1.4,0-2.7-0.5-4c-8.6-8.4-18.7-11.6-30.5-9.5c20.3-23.2,33.3-50,39-80.5C1079.3,352.6,1079.8,339.6,1078.9,326.5z M501.9,283.5
	c-2.2,6.3-5.4,12.2-9.5,17.5c-10,5.2-17.2,2.7-21.5-7.5c-1.2-4.8,0.3-8.7,4.5-11.5c3.5-1.8,7.2-3.3,11-4.5c7-0.2,14,0,21,0.5
	C504.9,279.2,503.1,281,501.9,283.5z"/>
<path class="st6" d="M859.4,473.5c-7.6,10.4-13.6,21.9-18,34c1-8.3,1.2-16.7,0.5-25c-2.4-6.4-5.1-12.8-8-19
	C841.4,469.5,849.9,472.9,859.4,473.5"/>
<path class="st7" d="M1022.4,1274.5c21.9,19.8,45.3,37.9,70,54.5c3.7,2.2,7.8,3.9,12,5c-11.6,8.4-23.1,16.9-34.5,25.5
	c1.5-5.2,0.3-9.7-3.5-13.5c-5.2-4.9-10.7-9.4-16.5-13.5c-7.9,5.6-16.1,10.7-24.5,15.5c-1.7,0.8-2.7,2.1-3,4c1.8,8.7,4.4,17,8,25
	c1.8,1.4,3.8,2.4,6,3c-9.7,5.5-19.3,11-29,16.5c0.5-10-0.4-20-2.5-30c-3.6-19.1-7.6-38.1-12-57c-0.8-4.3-2.3-8.3-4.5-12
	C999.8,1289.8,1011.1,1282.2,1022.4,1274.5 M226.4,1275.5c12.3,7.8,24.6,15.7,37,23.5c-2.4,2-3.9,4.5-4.5,7.5
	c-5.8,23.2-11.1,46.6-16,70c-0.4,7.2-0.6,14.2-0.5,21c-12.3-7.2-24.7-14.3-37-21.5c3.6-0.7,6.4-2.5,8.5-5.5
	c2.7-7.3,4.8-14.9,6.5-22.5c-0.3-1.3-0.9-2.3-2-3c-7.8-4.7-15.5-9.7-23-15c-1.3-0.7-2.7-0.7-4,0c-6.8,4.8-13,10.3-18.5,16.5
	c-0.2,2.4-0.7,4.7-1.5,7c-9.5-6.3-18.8-12.8-28-19.5c12-4.2,23-10.2,33-18c15.7-11.7,31.3-23.3,47-35
	C225.1,1279.5,226.1,1277.7,226.4,1275.5"/>
<path class="st8" d="M579.4,1277.5c9.2-1.1,17.9,0.4,26,4.5c7.4,9.2,6.4,17.3-3,24.5c13,8.2,14.4,18.1,4,29.5
	c-9.6,4.7-19.6,5.7-30,3c-13.3-6.4-15.9-15.8-8-28c2.2-1.6,4.5-2.9,7-4c-11-7.9-11.7-16.6-2-26
	C575.7,1280.1,577.7,1278.9,579.4,1277.5"/>
<path class="st9" d="M532.4,1278.5h11v61h-13c0.3-14,0-28-1-42c-3.5,1.4-7.2,2.1-11,2v-10c5.6,0.3,10.1-1.7,13.5-6
	C532.4,1281.9,532.6,1280.2,532.4,1278.5"/>
<path class="st8" d="M627.4,1278.5h44c0.2,3.3,0,6.7-0.5,10c-13.5,14.2-20.3,31.2-20.5,51h-13c0.1-19.2,6.8-35.7,20-49.5
	c-10-0.5-20-0.7-30-0.5V1278.5z"/>
<path class="st10" d="M708.4,1278.5h14v37h9v11h-9v13h-14v-13h-28c-0.2-4.3,0-8.7,0.5-13C690.6,1302.2,699.8,1290.5,708.4,1278.5"/>
<path class="st11" d="M584.4,1286.5c4.7-0.7,8.8,0.3,12.5,3c3.2,8.6,0.2,12.9-9,13c-7-0.3-10-4-9-11
	C580.7,1289.6,582.5,1288,584.4,1286.5"/>
<path class="st12" d="M235.4,1291.5c0.7-0.1,1.4,0,2,0.5c-5.3,13.1-9.3,26.6-12,40.5c-1,0.2-2.1,0-3-0.5l-18-12l28-24
	C234.1,1294.9,235.1,1293.4,235.4,1291.5"/>
<path class="st13" d="M708.4,1293.5c1,7.2,1.3,14.5,1,22c-6,0.2-12,0-18-0.5C697.3,1308,703,1300.8,708.4,1293.5"/>
<path class="st12" d="M1006.4,1295.5c11,9,21.6,18.3,32,28c-6.2,4.7-12.7,9-19.5,13C1014.9,1322.8,1010.7,1309.2,1006.4,1295.5"/>
<path class="st14" d="M583.4,1311.5c13.5-1.4,18.1,4.1,14,16.5c-7.3,5.2-13.8,4.4-19.5-2.5C576.2,1319.3,578,1314.7,583.4,1311.5"/>
<path class="st7" d="M298.4,1324.5c19.6,1.2,36.6,8.3,51,21.5c-2.5,6.7-5.3,13.2-8.5,19.5c-5.5-16.5-16.6-24-33.5-22.5
	c-3.8,4.6-4,9.5-0.5,14.5c7,8,13.7,16.4,20,25c7.6,13.9,5.4,26.1-6.5,36.5c-7.5,4.2-15.5,5.6-24,4c-13.2-3.8-25.6-9.4-37-17
	c-3.7-2.3-6.7-5.3-9-9c3.4-6.6,6.9-13.1,10.5-19.5c5.9,18.9,18.7,28.1,38.5,27.5c3.9-2.9,5.4-6.8,4.5-11.5l-22-30
	C274.3,1344.8,279.8,1331.8,298.4,1324.5"/>
<path class="st15" d="M928.4,1328.5h3c0.5,7.3,2.3,14.3,5.5,21c8.6,17.8,17.1,35.6,25.5,53.5c7.7-2.2,15.1-5.5,22-10
	c4.4-4.1,7.6-8.9,9.5-14.5c3,6.4,5.8,12.9,8.5,19.5c-0.1,0.8-0.5,1.4-1,2c-20.8,10.8-42,21-63.5,30.5c0-6.1-1-12.2-3-18
	c-8.5-20.9-17.5-41.6-27-62c-2.2-3.5-5-6.3-8.5-8.5C909.7,1338.6,919.3,1334.1,928.4,1328.5"/>
<path class="st7" d="M358.4,1347.5c17,5.7,34,11.6,51,17.5c8.9,3,17.9,5.5,27,7.5c-1,6.4-2.5,12.8-4.5,19c-7.1-7.9-15.8-12.2-26-13
	c-7.1,21.2-13.7,42.5-20,64c-0.3,5.5-0.5,10.8-0.5,16c-12.1-4.2-24.1-8.7-36-13.5c3.9-2.6,6.7-6.1,8.5-10.5
	c8.1-21.2,16-42.6,23.5-64c-3.9-2.5-8.3-4.3-13-5.5c-5.7-0.5-11.3-0.5-17,0C354.6,1359.6,357,1353.7,358.4,1347.5 M858.4,1357.5h4
	c-0.5,7.9,0.6,15.6,3.5,23c6.1,18.1,12.5,36.1,19,54c0.6,0.5,1.2,0.9,2,1c10.7-2.6,20.1-7.6,28-15c1.2-2.6,2.2-5.3,3-8
	c2.6,7,4.7,14.2,6.5,21.5c-0.3,1.3-0.9,2.3-2,3c-21.2,8-42.5,15.5-64,22.5c0-4.5-0.1-9.2-0.5-14c-6.6-24.8-14.6-49.1-24-73l-4.5-4.5
	C839.3,1365,848.9,1361.5,858.4,1357.5 M813.4,1371.5c1,0,1.7,0.5,2,1.5c-1,3.4-1.2,7-0.5,10.5c6.1,25.7,13.4,51,22,76l4.5,4.5
	c-12.5,3.6-25.2,6.6-38,9c1.9-4.6,2.4-9.5,1.5-14.5c-4.6-23.9-10.2-47.6-17-71c-1.6-2.5-3.5-4.8-5.5-7
	C792.8,1377.8,803.2,1374.8,813.4,1371.5"/>
<path class="st15" d="M469.4,1381.5c51.6,1.4,70.1,26.7,55.5,76c-8.8,16.8-22.8,25.1-42,25c-19.2-0.5-35.6-7.5-49-21
	c-8.7-15.1-9.7-30.8-3-47C437.9,1396.4,450.7,1385.4,469.4,1381.5 M776.4,1380.5c0.5,0.1,0.9,0.4,1,1c-3.1,5.6-4.9,11.6-5.5,18
	c-2.9,27.5-6.7,54.8-11.5,82c-9.9,2.3-19.9,4.1-30,5.5c-3.4,0.8-6.7,0.7-10-0.5c-12.4-25.3-23.9-51-34.5-77
	c-2.3-5.1-5.5-9.6-9.5-13.5c11-0.8,22-1.9,33-3.5c1.3,0.3,2.7,0.7,4,1c-2,3.1-2.5,6.4-1.5,10c9.8,23.6,20.1,46.9,31,70
	c3.2-24,6-48,8.5-72c1.1-5.8-0.5-10.5-5-14c9.3-1.9,18.7-3.7,28-5.5C775.3,1381.8,776,1381.3,776.4,1380.5"/>
<path class="st16" d="M548.4,1394.5c11.5,1,23,2,34.5,3c11.1,24.9,22.8,49.6,35,74c0.7-22,0.7-44,0-66c-0.6-2.6-1.8-5-3.5-7
	c9-1.2,18-1.3,27-0.5c-2,3.2-3.1,6.7-3.5,10.5c-0.4,28.3-0.2,56.7,0.5,85c-11.6,0.3-23.1,0-34.5-1c-13.3-23.9-25-48.6-35-74
	c-2.7,21.6-4,43.3-4,65c0.7,2.4,1.6,4.7,2.5,7c-10,1.1-20.1,0.5-30-1.5c1.6-1.8,2.9-3.8,4-6c4.8-25.1,7.8-50.5,9-76
	C550.6,1402.7,549.9,1398.5,548.4,1394.5"/>
<path class="st17" d="M476.4,1396.5c17.4-1.3,26,6.7,26,24c-0.1,13.3-2.9,26-8.5,38c-7.8,9.3-17.3,11.5-28.5,6.5
	c-7.9-5.2-11.2-12.5-10-22c0.2-14.3,4-27.4,11.5-39.5C469.8,1400.6,472.9,1398.2,476.4,1396.5"/>
</svg>
