<svg xmlns="http://www.w3.org/2000/svg" xmlns:xlink="http://www.w3.org/1999/xlink" fill="#000000" height="800px" width="800px" version="1.1" id="Layer_1" viewBox="0 0 512.009 512.009" xml:space="preserve">
<g>
	<g>
		<path d="M493.226,104.416c-11.705-11.783-27.918-19.083-45.84-19.083h-20.715c-0.002-47.13-38.203-85.329-85.333-85.329H170.671    c-47.131,0-85.333,38.202-85.333,85.333h-20.71h-0.009c-9.364,0-18.255,2.009-26.29,5.593c-5.755,2.567-11.061,5.948-15.779,10    C8.753,112.781,0,130.341,0,149.956v42.048c0,0.057,0.008,0.112,0.009,0.169v63.831c0,11.781,9.549,21.331,21.329,21.333v128    v42.048c0,35.697,28.922,64.619,64.619,64.619h42.048h256.004h42.044h0.004c2.915,0,5.78-0.212,8.593-0.586    c21.172-2.815,39.092-15.864,48.632-34.024c4.713-8.969,7.394-19.173,7.394-30.008v-42.048c0-0.029-0.004-0.056-0.004-0.085    V277.338h0.004c11.782,0,21.333-9.551,21.333-21.333V149.956C512.009,132.187,504.832,116.097,493.226,104.416z M469.342,234.671    h-0.004H359.033c-0.052-0.147-0.111-0.29-0.164-0.437c-0.087-0.24-0.179-0.477-0.269-0.715c-0.25-0.667-0.51-1.328-0.782-1.984    c-0.113-0.273-0.226-0.545-0.343-0.816c-0.287-0.667-0.587-1.327-0.896-1.983c-0.1-0.212-0.195-0.426-0.297-0.637    c-0.411-0.847-0.839-1.685-1.286-2.511c-0.096-0.177-0.199-0.349-0.296-0.526c-0.356-0.644-0.721-1.282-1.099-1.911    c-0.172-0.287-0.349-0.57-0.525-0.854c-0.325-0.524-0.657-1.042-0.997-1.555c-0.191-0.289-0.381-0.577-0.577-0.863    c-0.381-0.556-0.773-1.103-1.171-1.646c-0.156-0.213-0.306-0.431-0.465-0.642c-0.54-0.718-1.095-1.423-1.664-2.117    c-0.209-0.255-0.425-0.502-0.638-0.754c-0.387-0.458-0.778-0.913-1.178-1.36c-0.257-0.288-0.518-0.572-0.781-0.855    c-0.381-0.411-0.769-0.817-1.161-1.218c-0.264-0.27-0.527-0.542-0.796-0.808c-0.482-0.476-0.974-0.942-1.471-1.403    c-0.255-0.237-0.51-0.475-0.769-0.707c-0.582-0.522-1.173-1.035-1.774-1.536c-0.288-0.24-0.582-0.472-0.874-0.707    c-0.436-0.351-0.874-0.697-1.319-1.037c-0.315-0.24-0.632-0.478-0.952-0.713c-0.458-0.336-0.922-0.663-1.389-0.987    c-0.301-0.208-0.598-0.42-0.903-0.624c-0.738-0.494-1.485-0.976-2.245-1.439c-0.218-0.133-0.443-0.257-0.663-0.387    c-0.584-0.347-1.172-0.688-1.767-1.016c-0.324-0.178-0.651-0.35-0.978-0.522c-0.515-0.272-1.033-0.538-1.556-0.797    c-0.336-0.166-0.671-0.331-1.01-0.491c-0.576-0.272-1.159-0.533-1.745-0.789c-0.279-0.121-0.554-0.249-0.834-0.366    c-0.847-0.355-1.703-0.693-2.568-1.012c-0.251-0.092-0.506-0.175-0.758-0.265c-0.649-0.23-1.302-0.453-1.961-0.663    c-0.328-0.104-0.659-0.204-0.989-0.303c-0.615-0.185-1.233-0.36-1.855-0.527c-0.321-0.086-0.64-0.173-0.963-0.254    c-0.759-0.191-1.524-0.366-2.293-0.529c-0.177-0.037-0.351-0.081-0.528-0.117c-0.944-0.192-1.896-0.36-2.855-0.51    c-0.269-0.042-0.541-0.075-0.812-0.114c-0.708-0.101-1.419-0.193-2.134-0.271c-0.33-0.036-0.662-0.068-0.994-0.099    c-0.699-0.065-1.401-0.117-2.106-0.16c-0.302-0.018-0.603-0.04-0.907-0.054c-0.996-0.046-1.996-0.076-3.003-0.076h-0.004h-85.329    h-0.004c-0.005,0-0.011,0-0.016,0c-0.999,0-1.991,0.03-2.979,0.075c-0.316,0.015-0.63,0.037-0.945,0.057    c-0.689,0.042-1.374,0.093-2.057,0.156c-0.346,0.032-0.692,0.066-1.037,0.104c-0.694,0.076-1.384,0.165-2.071,0.263    c-0.29,0.041-0.581,0.077-0.869,0.122c-0.949,0.148-1.892,0.315-2.827,0.505c-0.206,0.042-0.408,0.093-0.614,0.136    c-0.74,0.158-1.475,0.326-2.205,0.509c-0.336,0.084-0.669,0.175-1.003,0.265c-0.609,0.163-1.213,0.335-1.815,0.515    c-0.34,0.102-0.679,0.204-1.016,0.311c-0.649,0.207-1.292,0.427-1.932,0.654c-0.26,0.092-0.522,0.177-0.78,0.273    c-0.863,0.319-1.718,0.656-2.563,1.01c-0.281,0.118-0.556,0.245-0.835,0.367c-0.587,0.256-1.171,0.518-1.749,0.791    c-0.336,0.159-0.669,0.322-1.001,0.486c-0.528,0.261-1.051,0.529-1.571,0.804c-0.322,0.17-0.644,0.339-0.962,0.514    c-0.61,0.336-1.213,0.685-1.81,1.041c-0.206,0.122-0.416,0.238-0.62,0.362c-0.764,0.466-1.515,0.951-2.258,1.447    c-0.297,0.199-0.587,0.405-0.881,0.609c-0.475,0.329-0.947,0.662-1.412,1.004c-0.315,0.231-0.626,0.464-0.937,0.701    c-0.451,0.344-0.895,0.695-1.336,1.05c-0.288,0.232-0.579,0.461-0.863,0.698c-0.599,0.5-1.188,1.011-1.769,1.532    c-0.269,0.241-0.532,0.488-0.797,0.733c-0.487,0.452-0.969,0.908-1.442,1.375c-0.279,0.275-0.551,0.557-0.824,0.837    c-0.378,0.387-0.751,0.778-1.119,1.174c-0.277,0.298-0.551,0.597-0.822,0.9c-0.371,0.416-0.735,0.839-1.095,1.265    c-0.241,0.284-0.486,0.564-0.721,0.852c-0.552,0.674-1.091,1.359-1.615,2.055c-0.21,0.28-0.41,0.567-0.616,0.85    c-0.339,0.467-0.676,0.935-1.003,1.411c-0.234,0.341-0.462,0.686-0.689,1.032c-0.289,0.438-0.572,0.88-0.85,1.326    c-0.22,0.353-0.44,0.706-0.654,1.064c-0.293,0.492-0.576,0.99-0.857,1.49c-0.176,0.314-0.358,0.623-0.529,0.94    c-0.413,0.767-0.81,1.544-1.193,2.329c-0.173,0.355-0.335,0.717-0.502,1.076c-0.228,0.492-0.454,0.984-0.67,1.483    c-0.171,0.394-0.336,0.79-0.499,1.188c-0.199,0.486-0.391,0.975-0.578,1.466c-0.151,0.395-0.303,0.789-0.446,1.187    c-0.033,0.092-0.07,0.182-0.103,0.274H42.675v-21.333h21.346c35.334,0,63.979-28.645,63.979-63.979v-21.355h256.004v21.35    c0,35.334,28.645,63.979,63.979,63.979h21.359V234.671z M192.009,256.004c0-11.791,9.542-21.333,21.333-21.333h85.329    c0.701,0,1.393,0.039,2.076,0.105c0.035,0.003,0.072,0.002,0.107,0.005c0.327,0.033,0.644,0.1,0.966,0.147    c6.869,1.018,12.669,5.293,15.766,11.225c1.537,2.948,2.418,6.294,2.418,9.851c0,11.791-9.542,21.333-21.333,21.333h-85.333    c-11.777,0-21.308-9.519-21.331-21.291C192.006,256.032,192.009,256.019,192.009,256.004z M469.338,149.952v20.715h-21.355    c-11.77,0-21.312-9.542-21.312-21.312v-21.35h20.719c6.059,0,11.547,2.457,15.52,6.428    C466.881,138.405,469.338,143.893,469.338,149.952z M170.671,42.671h170.667c23.567,0,42.667,19.099,42.667,42.667h-256    C128.004,61.77,147.104,42.671,170.671,42.671z M85.333,128.004v21.355c0,11.77-9.542,21.312-21.312,21.312H42.675v-20.715    c0-6.445,2.771-12.238,7.188-16.252c0.013-0.012,0.027-0.023,0.04-0.035c0.246-0.223,0.497-0.441,0.753-0.652    c1.283-1.058,2.69-1.969,4.192-2.718c0.086-0.043,0.169-0.089,0.255-0.131c0.075-0.036,0.153-0.068,0.229-0.104    c2.822-1.319,5.97-2.06,9.293-2.06H85.333z M85.956,469.338c-12.133,0-21.952-9.819-21.952-21.952v-20.715h21.355    c11.77,0,21.312,9.542,21.312,21.312v21.355H85.956z M405.342,469.338v-21.355c0-11.77,9.542-21.312,21.312-21.312h21.35v20.715    c0,3.574-0.858,6.945-2.37,9.926c-3.103,6.107-8.976,10.567-15.966,11.725c-1.177,0.195-2.383,0.301-3.616,0.301H405.342z     M448.004,384.004h-21.35c-35.334,0-63.979,28.645-63.979,63.979v21.355H149.338v-21.355c0-35.334-28.645-63.979-63.979-63.979    H64.004V277.338h88.973c0.046,0.131,0.099,0.259,0.146,0.39c0.102,0.284,0.211,0.564,0.317,0.846    c0.235,0.624,0.478,1.243,0.732,1.857c0.123,0.297,0.246,0.594,0.373,0.889c0.278,0.644,0.567,1.281,0.865,1.914    c0.107,0.228,0.21,0.459,0.32,0.685c0.41,0.846,0.837,1.681,1.283,2.506c0.089,0.164,0.185,0.325,0.275,0.488    c0.366,0.662,0.742,1.318,1.13,1.965c0.16,0.267,0.325,0.53,0.488,0.794c0.343,0.554,0.695,1.102,1.054,1.645    c0.172,0.259,0.342,0.518,0.518,0.775c0.423,0.618,0.857,1.227,1.301,1.83c0.113,0.153,0.22,0.31,0.334,0.461    c0.559,0.745,1.135,1.476,1.725,2.195c0.157,0.191,0.32,0.377,0.479,0.566c0.446,0.531,0.898,1.055,1.361,1.571    c0.212,0.236,0.427,0.47,0.642,0.703c0.443,0.479,0.894,0.951,1.351,1.417c0.208,0.212,0.413,0.425,0.624,0.634    c0.61,0.604,1.23,1.198,1.864,1.777c0.055,0.05,0.107,0.103,0.162,0.153c0.689,0.626,1.395,1.233,2.112,1.829    c0.216,0.179,0.436,0.352,0.654,0.529c0.517,0.419,1.04,0.831,1.57,1.234c0.254,0.193,0.509,0.384,0.765,0.573    c0.542,0.399,1.091,0.788,1.645,1.17c0.225,0.155,0.447,0.314,0.674,0.466c0.776,0.52,1.561,1.027,2.361,1.513    c0.101,0.062,0.206,0.119,0.308,0.18c0.703,0.422,1.415,0.832,2.135,1.227c0.266,0.146,0.535,0.286,0.803,0.429    c0.579,0.308,1.164,0.607,1.753,0.898c0.286,0.141,0.572,0.281,0.861,0.418c0.646,0.306,1.298,0.599,1.955,0.884    c0.217,0.094,0.431,0.193,0.649,0.285c0.87,0.365,1.749,0.712,2.638,1.04c0.203,0.075,0.409,0.141,0.613,0.214    c0.697,0.249,1.399,0.488,2.107,0.713c0.304,0.097,0.611,0.188,0.917,0.281c0.639,0.193,1.282,0.375,1.929,0.548    c0.304,0.081,0.607,0.164,0.913,0.241c0.778,0.195,1.561,0.375,2.35,0.542c0.161,0.034,0.32,0.074,0.481,0.107    c0.947,0.192,1.902,0.361,2.864,0.511c0.268,0.042,0.539,0.075,0.809,0.113c0.707,0.101,1.417,0.193,2.132,0.271    c0.333,0.036,0.668,0.069,1.003,0.1c0.694,0.065,1.391,0.117,2.091,0.159c0.307,0.019,0.613,0.041,0.921,0.055    c0.996,0.046,1.995,0.076,3.002,0.076h85.333c1.007,0,2.007-0.03,3.002-0.076c0.308-0.014,0.614-0.037,0.921-0.055    c0.7-0.042,1.397-0.094,2.091-0.159c0.335-0.031,0.669-0.064,1.003-0.1c0.715-0.078,1.425-0.169,2.132-0.271    c0.269-0.039,0.54-0.072,0.809-0.113c0.962-0.15,1.917-0.319,2.864-0.511c0.161-0.033,0.32-0.073,0.481-0.107    c0.789-0.167,1.572-0.347,2.35-0.542c0.306-0.077,0.609-0.16,0.913-0.241c0.647-0.173,1.291-0.355,1.93-0.548    c0.306-0.092,0.612-0.184,0.916-0.281c0.708-0.225,1.41-0.464,2.108-0.713c0.203-0.073,0.41-0.139,0.612-0.214    c0.889-0.328,1.768-0.675,2.638-1.04c0.218-0.092,0.432-0.191,0.649-0.285c0.657-0.285,1.31-0.578,1.955-0.884    c0.288-0.137,0.574-0.277,0.86-0.418c0.591-0.291,1.175-0.591,1.756-0.899c0.267-0.142,0.535-0.282,0.8-0.427    c0.721-0.396,1.433-0.805,2.137-1.228c0.102-0.061,0.206-0.118,0.307-0.179c0.8-0.487,1.585-0.994,2.362-1.514    c0.226-0.152,0.447-0.31,0.671-0.464c0.556-0.383,1.106-0.772,1.648-1.172c0.256-0.188,0.51-0.379,0.763-0.571    c0.531-0.404,1.055-0.816,1.573-1.236c0.218-0.176,0.437-0.349,0.653-0.528c0.716-0.596,1.422-1.203,2.112-1.829    c0.055-0.05,0.107-0.102,0.161-0.152c0.634-0.58,1.255-1.174,1.866-1.779c0.21-0.208,0.415-0.421,0.622-0.632    c0.458-0.466,0.909-0.938,1.352-1.418c0.215-0.233,0.429-0.466,0.641-0.702c0.464-0.517,0.917-1.043,1.364-1.575    c0.158-0.188,0.32-0.372,0.476-0.562c0.591-0.72,1.167-1.452,1.727-2.197c0.113-0.15,0.219-0.305,0.33-0.456    c0.445-0.604,0.881-1.216,1.305-1.836c0.174-0.255,0.344-0.513,0.515-0.771c0.36-0.544,0.713-1.093,1.057-1.649    c0.163-0.264,0.328-0.526,0.487-0.793c0.388-0.648,0.764-1.304,1.13-1.966c0.09-0.164,0.186-0.324,0.275-0.488    c0.446-0.825,0.873-1.661,1.284-2.507c0.109-0.225,0.211-0.455,0.318-0.682c0.298-0.634,0.588-1.272,0.866-1.917    c0.127-0.295,0.251-0.592,0.373-0.889c0.254-0.614,0.497-1.233,0.732-1.857c0.106-0.282,0.215-0.562,0.317-0.846    c0.047-0.131,0.1-0.259,0.146-0.39h88.973V384.004z"/>
	</g>
</g>
</svg>