<svg xmlns="http://www.w3.org/2000/svg" viewBox="85.33299255371094 -0.0003681182861328125 341.3350524902344 375.4673767089844"><g xmlns="http://www.w3.org/2000/svg">
		<path d="M426.668,102.398V17.064c0-6.294-3.467-12.078-9.011-15.051c-5.533-2.956-12.266-2.644-17.522,0.85l-41.734,27.822    L316.667,2.863c-5.352-3.557-13.543-3.583-18.934,0l-41.734,27.822L214.265,2.863c-5.3-3.539-13.499-3.611-18.934,0    l-41.734,27.822L111.866,2.865c-5.234-3.494-11.977-3.806-17.522-0.85c-5.544,2.972-9.011,8.755-9.011,15.051v85.334    c0,31.743,21.803,58.413,51.2,66.021v36.38h-17.067c-6.144,0-11.823,3.305-14.856,8.655c-3.022,5.356-2.945,11.923,0.222,17.194    l86.889,144.817h128.556l86.889-144.817c3.166-5.273,3.245-11.839,0.222-17.194c-3.033-5.35-8.711-8.655-14.856-8.655h-17.067    v-36.38C404.865,160.811,426.668,134.141,426.668,102.398z M307.201,147.403c8.898,10.109,20.711,17.541,34.134,21.015v36.38    h-68.267v-36.38C286.488,164.945,298.303,157.512,307.201,147.403z M265.468,65.397l24.667-16.444v53.445    c0,18.822-15.311,34.134-34.134,34.134s-34.134-15.311-34.134-34.134V48.954l24.666,16.444    C252.267,69.219,259.735,69.219,265.468,65.397z M204.8,147.403c8.897,10.109,20.711,17.541,34.134,21.015v36.38h-68.267v-36.38    C184.088,164.945,195.903,157.512,204.8,147.403z M119.466,102.398V48.953l24.667,16.444c5.733,3.822,13.201,3.822,18.934,0    l24.667-16.444v53.445c0,18.822-15.311,34.134-34.134,34.134S119.466,121.22,119.466,102.398z M348.714,261.724    c-7.092-3.607-14.885-5.725-23.07-5.725c-13.667,0-26.533,5.328-36.2,14.995l-20,20c-6.444,6.444-17.689,6.45-24.134-0.006    l-19.989-19.983C215.656,261.327,202.788,256,189.111,256c-8.992,0-17.538,2.512-25.153,6.844l-14.347-23.911H362.39    L348.714,261.724z M358.401,136.532c-18.822,0-34.134-15.311-34.134-34.134V48.953l24.667,16.444    c5.733,3.822,13.201,3.822,18.934,0l24.667-16.444v53.445C392.535,121.22,377.223,136.532,358.401,136.532z"></path>
	</g></svg>