<?xml version="1.0" encoding="utf-8"?>
<!-- Generator: Adobe Illustrator 25.2.1, SVG Export Plug-In . SVG Version: 6.00 Build 0)  -->
<svg version="1.1" id="Layer_1" xmlns="http://www.w3.org/2000/svg" xmlns:xlink="http://www.w3.org/1999/xlink" x="0px" y="0px"
	 viewBox="0 0 800 800" style="enable-background:new 0 0 800 800;" xml:space="preserve">
<style type="text/css">
	.st0{fill-rule:evenodd;clip-rule:evenodd;}
	.st1{fill-rule:evenodd;clip-rule:evenodd;fill:#FFFFFF;}
	.st2{fill-rule:evenodd;clip-rule:evenodd;fill:#F7E3CD;}
	.st3{fill-rule:evenodd;clip-rule:evenodd;fill:#E19B85;}
	.st4{fill-rule:evenodd;clip-rule:evenodd;fill:#ECB73A;}
	.st5{fill-rule:evenodd;clip-rule:evenodd;fill:#CF4044;}
	.st6{fill-rule:evenodd;clip-rule:evenodd;fill:#D9AD2E;}
	.st7{fill-rule:evenodd;clip-rule:evenodd;fill:#A5333A;}
	.st8{fill-rule:evenodd;clip-rule:evenodd;fill:#993022;}
</style>
<g>
	<path class="st0" d="M375.5,183.2c36.4-6,71.1,4.3,96.1,31.9c-7.2-68.9,71.7-81.9,98.6-25.4c26.1,55-32,111-79.4,72
		c5.3,24.1,2.2,56.6-14.9,75.6c-4.3,22-37.1,45.8-75.4,44.1c-5.4,6.9-4.1,17.4,0,23.8c14.2,19.6,49.3,28.2,64.3,39.9
		c-6.7-35.8,31.7-82.6,98.9-82.6c67.2,0,93.6,36.9,99.2,67.7c0.8,1.2,0.5,3.4,0.8,3.8c2.7,20.7-5.6,42.4-25.7,54.4
		c-20.1,12-46.5,9.9-87.3,2.7c-7.6,6-19.4,8-25.8,8.5c-2.7,10-12.4,21-22.9,25.5c-11,4.3-35.8-1.7-52.7-4.8c-8,2.1-17.3,4.1-23.9,6
		c-10,8.8-14.6,20.4-22,30.7c-5.8,7.1-30.1,1.5-33.2,0.1c-15.1,11.4-30.2,31.6-35.3,40.5c3.1,9.1,4.6,29.4-14.9,36.5
		c-8.3,25.8-23.2,37-48.6,34.9c-21-1.7-48.7-16.8-72-51.2c-18.9-27.9-39.5-79.3-10.1-122.8c41.8-61.8,124.3-13.2,108.8,70
		c1.3,0.5,2.8,0.2,4.1,0.7c7.2-8.7,16.4-17.2,25.4-24.3c-5.8-3.5-17.4-9.7-15.8-17.2c1.1-4.5,8.8-10.5,31.2-19.5
		c-17.2-19.6-29.2-43.1-31.8-67.2c-16.9,8.4-42.3,12.1-62.4,5.5c-4.3,2.7-10.1,3.5-15.2,2.2c-36.4,26.5-108.6-17.4-87.9-62.9
		c-1.7-15.4-0.7-33.1,12.9-44c0.1-34.8,53.4-36,67.3-1.6c27.6,0.2,52.6,28.9,34.8,62.7c0.9,2.2,1.2,5,1.6,7.2
		c4.5,0.9,15.9,1.7,25.1,0.7c6.6-2.5,15.4-6.7,21.5-10.1c1-3.6,4.1-10.6,6.4-14.2c-12.9-30.4-76.9-117.5-90.7-132.4
		c-5.2-0.9-10.2-2.8-14.5-6.3c-21.6,2.2-47.4-7.4-60.7-11c-13.4-3.7-40-7.9-52.4-13.2c-21.1,2.1-33-19.6-10-32.6
		c0.9-10.8,12.5-16.6,21.3-20.1c44.9-15.7,87.4-16.7,118.6-35.8c-5.8-17.3,9.4-40.9,32.9-40.4c10.6,0.2,15.5,4.5,17.2,10.6
		c2,8.8-6.6,20.7-9.8,26.5c-6.2,10.6-10.4,23.3-8.4,35.9c3.3,9.6,2.7,25.9-1.5,34.4c4.4,6.2,6,14.4,4.5,21.8
		c5.7,17.8,17.1,39.1,30.3,56.7c0.9-2.6,3.6-7.4,5.3-8.9c1.5-26.4,25.4-56.3,40.3-66.2c-44.9,3.6-75.6-58.1-32.2-99.4
		C358.5,51.9,430.4,126.6,375.5,183.2L375.5,183.2z"/>
	<path class="st1" d="M273.6,100.9c2.1,8.4-4.2,16.2-7.2,21.4c-6.7,10.3-11.9,23.8-10.8,35c-1-1.8-2.5-3.8-4.3-4.3
		c10.2,17.8,6,43.1-4,59.4c3.9-2.7,7.5-8.1,8.6-10.5c13.3,19.7-17.8,58-41.6,41.8c10.2-1.5,26.4-13.7,29.2-24.6
		c-11.2,15.8-28.8,24-48.6,20.7c-18.9-2.1-35.9-9.2-54-13.2c-16.8-3.3-31.2-6.7-38.4-8.1c-8.2-1.6-14.3-13.7,5.8-20.6
		c13-4.2,28.5-4.4,41.9-0.9c-0.4,3.2,0,9,1.4,11.3c1.7-17.4,10.6-34.4,19.7-46.8c-3.6,1.7-7.2,6.3-9.2,8.6
		c-22,4.4-53.3,4.2-72.4,15.7c4.1-8.1,9-10.6,29.3-17.6c21.3-7.3,77.4-14.1,109.1-33.6c0.9,0.9,1.4,2.9,2.3,2.7
		c-7.2-15.9,3.5-46.3,34.8-42C269.6,95.6,272.8,98.2,273.6,100.9L273.6,100.9z"/>
	<path class="st0" d="M243.5,210c3.7-32.3-20.3-41.9-48-38.8C226.9,159.8,254.4,185.5,243.5,210z"/>
	<path class="st1" d="M160,172.8c-3.7,5.9-8.2,16.3-9.2,21.6c-16.4-4.8-37.4-4.6-52.1,3.7c-11.5,7-7.2,17.3-4.3,19
		c-23.9-1.5-26.6-28.4,25.3-38.1C131.9,176.8,147.4,175.5,160,172.8L160,172.8z"/>
	<path class="st2" d="M422.8,208.6c6.4-7.2,21.5-15.8,39.2,2.1c20.2,20.5,16.7,72.5-18.5,90.4c18.6,1.1,33.3,21.6,27.3,39.6
		c-6.9,20.9-43.5,41.5-77.9,37c2-1,9.8-5.2,9.5-7.3c-50.4,28.8-58.5,4.8-73.6-24.1c-0.9,1.8,0.9,6.4,1.9,8.1
		c-21.6-16.4-36-38.7-37.4-64.9c-0.5-24.7,24.2-36.3,47.6-22.4c-15-46.2,22.7-84.5,59-83C420.8,185.1,422.3,204.3,422.8,208.6z"/>
	<path class="st0" d="M388.6,275.1c2.5,0.3,10,2.5,12.6,3.9c4.4-23.3,22.2-56.1,34.1-50.9c10.5,4.6,3.8,41.4-20.6,59
		c2.5,3,6.2,6.9,7.1,11.2c-16.8-21.5-44.7-23.3-62.1-20.6c2.5-2.6,9.3-2.7,14.2-3.6c-7.9-23.9,12.6-62,26.6-58.3
		C413.1,219.1,399.9,261.6,388.6,275.1z"/>
	<path class="st1" d="M392.9,263c4-20.1-18.8-6.7-14.4,10.9c-0.7,0.1-1.7-0.2-2.5,0c-7-22.2,13.6-59.5,23.5-56.3
		C409.3,220.8,396.4,259.5,392.9,263L392.9,263z M434.4,230.1c7.5,2.8,1,40.7-21.3,55.6c-0.6-0.3-1.2-1-1.9-1.4
		c16.2-19.7,2.3-29.4-4.8-15.4C409.6,256.1,425.9,227,434.4,230.1L434.4,230.1z"/>
	<path class="st0" d="M334.6,282.6c-3.9,1.2-8.8,1-12.9,2.7c3,43.9,66.5,85.5,128,42.7c-3.1-4.9-7.4-7.1-11.7-10.3
		c10.6,0.7,21.8,14.7,18.7,23.1c-1.3-3.1-2.8-8.1-6-11.5c-9.4,7.4-19.9,12.3-30.7,16.4c-18.6,13-36.8,35.7-59.2,30.7
		c-25.9-5.8-26.9-49.2-30.5-59.9c-5.5-9.2-9.4-19-10.8-30c-5.1,2.1-7.7,4.6-11.6,6.7C309.3,286.2,324.3,278.3,334.6,282.6z"/>
	<path class="st0" d="M391.6,284.9c37.5,12.3,22.8,45.3-11.3,35.8C341.8,309.9,353.9,272.5,391.6,284.9z"/>
	<path class="st1" d="M222.8,336.5c-1.3,0.2-2.7,0.4-3.8,0.6c-3.6-3.4-7.1-7.1-11.2-9.3c1.8,5.9,11.8,14.5,20.9,18.3
		c-2.6-2.3-5.3-4.9-7.4-7c34.4,1.7,49.2,28.6,38.1,57.4c-11.6-19.3-37.4-13.8-44.9,6.6c-7.6,20.7,6.6,38.7,16.7,41.2
		c-42.6,19.9-95-23.4-83.7-54.5c1.3,3.4,2.8,7.1,5.6,8.7c-7.2-17.7-4.6-43.8,5.8-55.2c0.8,4.7,4.1,15,8.6,19.3
		c-3.4-16.4-10.2-27,1.1-39.9C177.9,312,210.5,311.5,222.8,336.5L222.8,336.5z"/>
	<path class="st3" d="M367.3,358.1c0,0.1-7,2.8-8.7,6.3c17.6-9.5,29.5,1.1,30.3,1.8c-14.1,11.2-38.4,13.3-46.7-13.1
		C344.8,350,360.1,345.7,367.3,358.1z"/>
	<path class="st1" d="M317.5,377.6c1.3-7.7,7.1-14.6,13.8-18.8C326,364.4,321.3,370.8,317.5,377.6z"/>
	<path class="st4" d="M657.9,433.7c4.4,35-18.6,47.7-25.7,52.3c-22.6,11-55.3,5.2-77.7,2.2c4.4-4.3,8.7-10.3,5-20.7
		c10-15.4-8.8-36-32.9-37.6c-14.5-1-34.6,7.9-32.9,24.5c-2.7,0.1-7.2,1.1-10.5,2.6c-2-0.7-5.7-2-8.6-2.7c-1.7-2.2-3.6-4.4-5.6-6.4
		c-7.1-34.5,29.3-78.9,91.3-80.5C622.3,365.9,653.6,399.4,657.9,433.7L657.9,433.7z"/>
	<path class="st0" d="M210,397.5c-9.7-4.1-25.6-26.2-23.4-27.9C188.7,367.8,195.1,382.7,210,397.5z"/>
	<path class="st1" d="M344.6,376.9c-11.1,4.3-20.9,12.5-31.5,18.2C321.3,387.7,337.8,377.3,344.6,376.9z M259.3,406.1
		c-8.2-1-19.4-5.3-25.3,3.2c-4.6,6.4-4.2,16.4,0,22.8c2.6,4.3,6.9,7.9,11,9.8c-15.9,6.7-36.4-15.6-27.6-38.1
		C226.3,380.8,256.7,384.3,259.3,406.1L259.3,406.1z"/>
	<path class="st0" d="M206.5,412.6c-20,0.5-40.5-15.3-39.2-17.8C168.3,392.8,188.7,410.5,206.5,412.6z"/>
	<path class="st1" d="M379.7,399.1c-11.2,3.4-21.4,9.4-31.1,16.1c3.7,0.8,9.5-0.4,19.9-3.8c-6.3,4.4-14.9,6.3-22.2,5.3
		c-9.4,6.7-19.4,13.8-29.7,18.8C334.6,424.1,363.3,399.5,379.7,399.1L379.7,399.1z"/>
	<path class="st0" d="M567.6,469.6c1.6-16,0.1-44.3-6-63.6C569.9,420,573.7,461.9,567.6,469.6z"/>
	<path class="st5" d="M478.3,464.6c0.3-1.1-0.4-4.8-1-6c5.8,1.7,12.3,3.7,19,3.9c-2.2-1.7-5.8-3.2-9-4.3
		c39.3-8.9,48.3,47.3,12.5,63.3c-12.8,4.9-45.6-7.1-69.2-4.9c3.4,1.3,7.7,1.7,11.4,2.4c-17,2.7-32.9,8.7-48.4,15
		c2.9,0.7,18.1-3.9,25.1-5.6c-6.4,4.7-10.8,17-16.7,25.2c-26.3-9.1-76.9-33.4-85.9-31.4c6.1-5,19.3-10.3,29.2-15.2
		c3.2,3.5,8.2,7,13.1,8.9c-3.5-3.5-7.4-7.1-10.5-10.9c2.2,1.2,6.9,3,9.1,1.8c8.3-4.6-17.5-37.6-25.3-33.7c-2.2,1.1-2.1,5.4-1.2,8
		c-5.6-9.9-11.8-21.7-13.2-33.2c21.8,20.4,54.7,1.8,81.2-39.8C415.1,433.4,465.8,438.8,478.3,464.6L478.3,464.6z"/>
	<path class="st1" d="M283.2,408.3c0.8,0,1.3,0,2.3-0.1c-4.2,2.1-8.4,4-12.8,5.2C276.1,412.3,280.2,409.5,283.2,408.3z"/>
	<path class="st0" d="M206.4,426.7c-8.1,3.9-31.5,0.8-31.1-6.2C175.3,419.1,185,427.4,206.4,426.7z"/>
	<path class="st4" d="M558.4,464.1c-7.2-12.5-40-29.9-50.8-7c-2.5-1.4-7.3-2.5-11-2.7c-1.2-11.2,11-21.4,28.3-21.4
		C546.4,433.1,562.6,449.7,558.4,464.1L558.4,464.1z"/>
	<path class="st1" d="M515.8,462.6c4.1-1,9.3-2,14.7-5.5C530.3,459.6,520.6,463.8,515.8,462.6z"/>
	<path class="st0" d="M399,472.8c27.5,26.6,10.3,49.5-20.5,20.1C352.8,468.5,368.4,443.1,399,472.8z"/>
	<path class="st1" d="M397.8,476c22.6,23.8,11.7,41.3-16.8,14.6C356,467.2,370.2,447,397.8,476z"/>
	<path class="st4" d="M284.7,502.2c18.3,31.2,10.6,71.2,7,80.8c1.5-0.6,4.9-8.2,5.8-12c0.7,5,1.3,11.6,0.3,17.5
		c1.7-1,2.5-4.1,2.7-6.2c13.7,7.9,20.7,31.2,20.3,37.7c-0.4,7.3-8.2,24-11.6,29.3c-5.1,8.2-13.7,14.6-24.5,14.9
		c4.7-1.5,8.8-8.5,8.6-15.8c-0.2-10-7.5-19.7-15.4-39.6c-7.9-19.9-17.7-54.9-24.3-83.3c-8.3-33.8-40.4-42.9-58.5-30.8
		C211.8,467,259,458.4,284.7,502.2L284.7,502.2z"/>
	<path class="st1" d="M355.7,504.8c-2.5,1.6-9-3.1-10.6-4.5c-2.3-2.6-5.3-6-7.5-9.2c-3.4-4.8-7.1-15.1-4.9-16.4
		C337,471.9,360.1,501.9,355.7,504.8z"/>
	<path class="st6" d="M245.8,515.7c6.3,12,17.1,71.1,31.8,100.9c-14,8.3-50.3,6.3-81.5-12.9c-15.8-28.6-25.1-70.3-6.3-100.4
		C196.7,492.4,228.5,483,245.8,515.7L245.8,515.7z"/>
	<path class="st7" d="M341.1,532.7c-3.5,2-7.3,4.6-11,7c-9.8-4.3-17.4-11.6-15.5-14.1C316.5,523.1,330.3,528,341.1,532.7z
		 M400.2,556.6c-4.5,2-18.9,0.6-27.4-2c2-1.7,5.6-4.9,7.2-6.2C386.6,551.4,401.6,556,400.2,556.6z"/>
	<path class="st4" d="M331.4,599c2.4,9.1,3.2,25.3-9.8,31.2c6.6-14.9-5.1-40.8-20.9-50.6c0.1-4.1-0.1-7.9-1.4-11.4
		C314.5,570.1,326.8,585.4,331.4,599L331.4,599z"/>
	<path class="st6" d="M278.4,618.5c3.4,8.2,9.3,18.9,10.7,24.5c1.4,5.6,1.6,20.7-14.3,21.7c-15.9,1-51.6-15-74.6-54.3
		C218.6,620.4,259.1,631.3,278.4,618.5L278.4,618.5z"/>
	<path class="st8" d="M334.6,322.2c0,0,8.1,13.3,30.7,21c0,0,15.4,9.7,45.3,4c0,0-10.9,8.9-20.2,16.6c0,0-6.5-6.1-21-6.5
		c0,0-6.1-15-27.9-7.3C341.5,350.1,335,331.1,334.6,322.2L334.6,322.2z"/>
</g>
</svg>
