<?xml version="1.0" encoding="utf-8"?>
<!-- Generator: Adobe Illustrator 25.2.1, SVG Export Plug-In . SVG Version: 6.00 Build 0)  -->
<svg version="1.1" id="Layer_1" xmlns="http://www.w3.org/2000/svg" xmlns:xlink="http://www.w3.org/1999/xlink" x="0px" y="0px"
	 viewBox="0 0 800 800" style="enable-background:new 0 0 800 800;" xml:space="preserve">
<style type="text/css">
	.st0{fill-rule:evenodd;clip-rule:evenodd;}
</style>
<g>
	<path class="st0" d="M245,389l-11.6-25.8l-9.8,0.1l-14,25.7L245,389z M224.9,357.6l6.8,0.1l-2.8-7.6L224.9,357.6L224.9,357.6z
		 M268.1,362.8l-5.2,26.9l337.8,0.1l-9.6-26.9h-10l-6.3,7.3l-7-7.3L268.1,362.8z M317.7,330.7l-17.1-33l-12.3,0l-19.8,32.9
		L317.7,330.7L317.7,330.7z M590.2,358.8l-3.9-10.5l-4.1,10.5H590.2L590.2,358.8z M478.3,293.9v-31.6h-8.1v-10l-42.9,0v10.1h-7.1
		l-2.4,7.4l-6.4-10.5l-11.7,25.9h-6.4l1.8-6.9l-11.1-26.2l-6.2,0l-12.3,26.3l1.5,6.7h-4.8l3.1,8.7L478.3,293.9L478.3,293.9z
		 M381,242.5l-2.1,5.2h4.4L381,242.5z M470.3,248.8v-15.8l5.7-12.3l-5.7-6v-14h-42.5l0,14l-5.5,6l5.1,12.2v15.8L470.3,248.8
		L470.3,248.8z M289.9,295.2h9.9l-4.7-9.6L289.9,295.2z M228.2,339.5l0-8.7l-19,5.1L228.2,339.5L228.2,339.5z M295.2,274.4l0-8.7
		l-19,5.1L295.2,274.4z M380.5,231.3l0-8.7l-19,5.1L380.5,231.3z M505,270.1l0-8.7l-19,5.1L505,270.1z M550.5,298.4l0-8.7l-19,5.1
		L550.5,298.4z M235.2,628.3v-6.7h-20.1v6.7h6.2v39.6h-6.2v6.7h20.1v-6.7h-6.2l0-39.6H235.2z M375.4,628.8v8.4h6.4v-15.6h-39.3v15.6
		h6.4v-8.4h9.4v39.1H352v6.7h20.2v-6.7H366v-39.1H375.4L375.4,628.8z M314.9,659h-8.6c-0.9,1.4-1.9,2.6-3.1,3.7
		c-5.1,4.4-10.7,5.7-16.3,4.8c-4.3-0.7-8.2-2.9-11.2-6.1c-4-4.5-5.5-10.2-5-15.6c0.2-1.6,0.5-3.3,1.1-4.8c0.5-1.4,1.1-2.7,1.8-3.8
		c1.4-2.3,3.3-4.2,5.6-5.7c6.1-4,13.9-4.3,20.3-0.8c2.7,1.4,5,3.6,6.6,6.2h7.6v-15.1H307v5.8c-0.3-0.3-0.5-0.5-0.8-0.8
		c-2-2-4.4-3.5-7-4.6c-4.3-1.7-9.5-2.3-14.6-1.2c-1.7,0.4-3.4,0.9-5.1,1.6c-5.6,2.4-10.2,6.5-13.2,11.8c-4.1,7.2-4.7,15.6-1.8,23.8
		c0.8,2.3,2,4.4,3.4,6.4c2.8,4,7,7.2,10.8,9c3.9,1.8,7.3,2.5,11,2.6c3.6,0.1,7.8-0.7,12-2.7c2.1-1,4-2.2,5.7-3.7
		C310.8,666.6,313.5,662.6,314.9,659z M591.1,667.6H575V651h17.6v-6.3H575v-15.9h16.1v7.7h7.9v-14.9h-38v6.7h6.2v39.6H561v6.7h38
		v-14.9h-7.9V667.6L591.1,667.6z M458.9,628.3l0-6.7h-19.4v6.7h5.5c0,9.7,0,19.3,0,29c0,1.3-0.3,3.3-1,5.1c-0.4,0.9-0.9,1.7-1.5,2.5
		c-1.9,2.3-4.7,3.6-7.7,3.5c-2.1,0-4.2-0.6-5.9-1.8c-0.8-0.6-1.6-1.3-2.2-2.2c-1.8-2.4-2.1-5.3-2.1-7.9v-28.1h5.5v-6.7h-19.5l0,6.7
		h6.2c0,10.1,0,20.2,0,30.3c0.1,3.2,0.8,6.5,2.8,9.6c0.6,0.9,1.3,1.8,2.1,2.6c2.2,2.3,5,3.8,8.1,4.5c3.7,0.9,7.6,0.7,11.3-0.4
		c3.7-1.2,6.9-3.6,9-6.9c2-3.1,2.7-6.8,2.7-10.3v-29.4L458.9,628.3L458.9,628.3L458.9,628.3z M525.6,667.9l-9.4-12.4
		c3.5-0.3,7.2-1.1,11-6c3.3-4.6,3.9-9.6,2.8-14.6c-0.4-1.5-0.9-3-1.6-4.4c-0.8-1.5-1.8-2.8-2.9-4c-1.2-1.2-2.5-2.2-4-2.9
		c-3-1.6-6.4-2-9.6-2h-23.9v6.7h6.2v39.6h-6.2v6.7H507v-6.7h-5.3v-39.1c3.7,0,7.4-0.1,11.2,0.1c2.3,0.2,4.8,0.5,7.5,3.9
		c2.1,2.7,2.8,6.2,2,9.5c-0.6,2.7-2.2,5-4.5,6.5c-2.4,1.7-5.5,1.9-8.3,1.9l-5.6,0l16.8,23.9H532v-6.7L525.6,667.9L525.6,667.9
		L525.6,667.9z M638.5,674.6v-3.9c0.6,0.9,1.4,1.7,2.2,2.3c3.2,2.7,6.9,3.2,10.5,2.9c3.9-0.3,7.6-2.1,10.3-4.9
		c2.3-2.4,3.7-5.4,4.2-8.7c0.4-2.6,0.1-5.2-0.7-7.7c-0.3-1-0.8-1.9-1.3-2.8c-3.4-4.8-7.7-6.1-11.7-7.2c-2.2-0.6-4.4-1-6.5-1.8
		c-1.3-0.5-3.4-1.4-4.4-3c-1.6-2.6-1.9-5.3-0.5-8.2c1.3-2.3,3.1-3.2,4.8-3.8c2.9-0.6,5.8-1,9,2.2c1.5,1.7,2,3.5,2.1,5.3h7.1v-13.7
		h-6.1v3.9c-0.9-1.5-2.8-3.1-4.3-3.7c-1.7-0.7-3.5-1.1-5.3-1.1c-3.2,0-6.4,0.8-9.1,2.5c-0.8,0.5-1.6,1.1-2.3,1.8
		c-4,3.9-5,8.3-4.4,12.8c0.3,2.2,1.1,4.3,2.7,6.3c2,2.5,4.2,3.8,6.5,4.9c4.3,2,8.7,2,13.3,4.6c1.2,0.7,2.7,2.4,3.1,4
		c0.7,2.1,0.6,4.5-0.5,6.8c-0.5,1-1.2,1.8-2,2.5c-3.5,2.7-7.7,3-11.9,0.5c-3.1-2.3-3.6-5.1-3.8-7.8h-7.2v15L638.5,674.6L638.5,674.6
		L638.5,674.6z M269.8,350.7c-0.1,2.7-0.5,5.5-1,8.2l258.6-0.1c-5.6-7.1-9.4-15.4-11.3-24.3h-19.6l-2.2,3l-3.6-3l-153.6,0l-6,14.7
		l-12.2,0l6.5-14.7h-57.6C269.4,339.7,270,345.2,269.8,350.7L269.8,350.7z M550.6,309.2l-8.5,21.2h15.6L550.6,309.2z M558.7,334.5
		h-18.1l-8.2,24.3h34.5L558.7,334.5L558.7,334.5z M616.1,479.7l-6.1-22.4l-60,0c-3.2,6.4-7.7,12-13.2,16.5c-2.7,2.3-5.7,4.2-8.8,5.9
		L616.1,479.7L616.1,479.7z"/>
	<path class="st0" d="M478.2,198.8c-0.2,0.3-0.5,0.5-0.8,0.7c31.6,6.5,61.8,18.5,89.2,35.5c27.4,17.1,51.5,38.9,71.2,64.4
		c19.7,25.5,34.7,54.4,44.3,85.2c9.5,30.8,13.6,63.1,11.9,95.3h4.2c2.3-32.8-1.4-65.9-10.8-97.4s-24.8-61.1-44.9-87.1
		c-20.1-26-45-48.3-73-65.3c-28-17.1-59.2-29-91.5-35C478.9,196.1,479.1,197.3,478.2,198.8L478.2,198.8z M449.4,141.4l-26.9,53.9
		c-0.4,0.7-0.5,1.6,0.5,2.6c0.4,0.3,0.9,0.5,1.3,0.4h49.4c0.6,0,1.1,0,1.8-1c0.4-0.6,0.4-1.5,0-2.1L449.4,141.4L449.4,141.4z
		 M449.4,124l-19,5.1l19,3.6L449.4,124z M422.9,187c-26-1.6-52.3,0.5-77.7,6.2s-50.1,14.9-72.8,27.5c-22.7,12.7-43.4,28.8-58,41.8
		c-14.6,13.1-23.1,23.1-30.9,33.5c-7.8,10.5-15.1,21.4-21.3,32.8c-6.3,11.4-11.6,23.3-15.5,31.6c-3.8,8.3-6.1,13-8,17.7
		c-1.9,4.8-3.5,9.6-5.5,14.6c-2.1,5.2-4.4,10.2-6.9,15.2l9.3,4.4c2-10.4,4.8-20.7,8.1-30.7c1.7-5,3.5-10,7.1-18.3
		c3.6-8.3,9-19.9,15.3-31c6.2-11.1,13.3-21.8,21-32c7.7-10.2,16-20,30.2-32.8c14.2-12.8,34.4-28.6,56.5-41.2s46.1-21.9,70.9-27.7
		c24.9-5.9,50.4-8.3,75.9-7.3L422.9,187L422.9,187z M505.2,279.5l-5.2,14.4h11.1L505.2,279.5z M357.2,330.7l-9.2-29.2l-9.8,29.2
		L357.2,330.7L357.2,330.7z M496.4,330.5h20.1v-10.1l4.1-4.9l-8.4-17.5h-13.7l-6.4,17.5l4.3,4.9
		C496.4,323.7,496.5,327.1,496.4,330.5z M367.1,330.8H489c-5.5-10.2-9.1-21.3-10.6-32.8l-110.9,0
		C370.4,308.7,370.3,320.1,367.1,330.8z M199.2,476.7c0.7,0.6,1.2,1.3,1.6,2.1l152.2,0.1l-0.1-22.3l-153.4,0.1l-5.3,18.3
		C196.1,474.9,197.8,475.6,199.2,476.7L199.2,476.7z M278.3,425.8h-79.1l0.1,22H353c0.7-3.8,1.9-7.7,3.5-11.5
		c-17.5-5.5-35.9-7.3-54.1-5.2c-0.4,3-1.9,5.8-4.2,7.8c-3.7,3-8.3,3.8-12.8,2C279.4,438.4,276.4,431.8,278.3,425.8L278.3,425.8z
		 M509.1,425.7l-60-0.1c5.6,6.6,10,14.1,13,22.2l12.4-0.1c2.9-3.6,6.3-6.8,9.9-9.7C491.7,432.2,500.1,428,509.1,425.7L509.1,425.7z
		 M315.1,412c18.9-3.1,38.3-1.7,56.5,4.2c6.4-4.1,13-7.6,19.5-9c2.3-0.6,4.6-1,6.9-1.3c2.3-0.3,4.7-0.5,8.2-0.4
		c3.5,0.1,8.2,0.6,12.7,1.6c4.5,1,8.9,2.7,13.1,4.8c4.2,2.1,8.1,4.7,11.6,7.8h180.7l-21.6-24.3l-396.9-0.6l-18.1,24.9l100,0.1
		C296.5,416.1,305.7,413.5,315.1,412L315.1,412z M488.6,551.1c0.2,2,1,4,2.4,5.5c2.1,2.3,5.2,3.4,8.3,2.9c1.8-0.3,3.5-1.1,5-2.1
		c1.9-1.4,2.6-3.2,2.8-4.9c0.3-4.7,0.4-9.4,0.5-14.1c0-4.7-0.1-9.4-0.2-13.4c-0.1-4-0.3-7.2-0.4-10.4c-0.2-3.2-0.4-6.4-0.5-8.5
		c-0.1-1.3-0.2-2.6-0.4-3.9c-0.3-1.8-0.7-3.5-1.2-5.2c-0.6-1.9-1.7-3.7-3.1-5c-2-2.1-5.3-2.3-7.5-0.3c-1.2,1.1-1.6,2.6-2,3.9
		c-0.5,1.7-0.8,3.4-1,5.2c-0.1,1.3-0.3,3-0.4,4.7c-0.1,1.7-0.2,3.4-0.3,5.4c-0.2,4-0.6,8.9-1.2,13.4
		C487.8,533.2,487.6,542.2,488.6,551.1L488.6,551.1z M632.3,510.6c-1.9-6.8-3.7-13.6-5.5-20.4L632.3,510.6z M610,425.6l-75,0.1
		c2.6,0.5,5.1,1.4,7.4,2.7c7.1,4,11.6,11.3,12.2,19.4l55.3,0.1L610,425.6L610,425.6z"/>
	<path class="st0" d="M632.3,510.6l1.8,7.4c0.8,3.4,1.6,6.9,1.2,7.5s-2.1-1.7-3.7-4c-1.7-2-3.3-4-4.9-6.1c-2.6-3.2-6.5-8.3-8.9-11.3
		c-2.4-3-3.1-3.9-3.9-4.8c-1.6-1.8-3.3-3.4-5.2-4.9c-2-1.5-4.8-1.8-7.1-0.7c-0.7,0.4-1.4,0.8-2,1.4c-0.6,0.6-1,1.3-1.4,2.1
		c-3.1,6.6-5.1,13.6-6.1,20.8l-2.3,13.3c-1.5,6.8-1.4,13.9,1,20.9c0.3,0.7,0.8,1.4,1.5,2.1c2.8,2.5,6.9,2.7,9.9,0.4
		c2.3-1.7,2.9-4,3.2-6.3c1.2-9.5,2.3-19.1,3.5-28.6c4.4,9.3,9.8,18.1,16.2,26.1c2.5,2.8,4.9,5.3,7.4,6.3c3.7,1.5,7.5,0.8,11.7-1.9
		c0.9-0.6,1.7-1.3,2.4-2.1c1.4-1.6,2.7-3.3,3.8-5.1c3.4-5.8,3.9-12.2,3.7-18.5c-0.2-4.2-0.7-8.4-1.7-12.6c-0.9-3.7-2.1-7.4-3.6-11
		c-1.5-3.6-3.2-7-5.3-10.3c-2-3.3-4.3-6.4-6.8-9.3c-2.2-2.4-4.6-3.5-7-3.3c-0.6,0.1-1.2,0.3-1.7,0.6c-2,1.3-2.5,3-2.4,4.7
		c0.3,2.2,0.7,4.5,1.3,6.7L632.3,510.6L632.3,510.6z M658.8,502.6c2.1,2.4,4.9,4,8,4.5l-3.9,8.6c-0.7,0.2-1.3,0.5-1.8,0.8
		c-2.7,2-3.2,4.5-2.4,7.2c0.2,0.6,0.6,1.2,1,1.8c-2.6,4.6-5,9.3-5.7,13.9c-0.6,3.7,0.9,7.7,2.4,11.4c0.7,1.5,1.4,3,2.2,4.5
		c1.3,2.3,3.3,4.1,5.6,5.3c5.1,2.2,11,1.7,16.8-0.3c4.2-1.6,8.4-3.4,12.4-5.4c4.1-2,8.1-4.1,10.3-5.4c2.2-1.3,2.7-1.7,3.2-2.1
		c2-2.4,1.9-5.3,0.3-8.4c-0.4-0.7-1-1.4-1.7-2c-3.3-2.8-7.2-2.1-11-1.6c-4,0.8-7.9,1.9-11.8,2.9c-4.1,1.5-8.2,2.9-9,1.3
		c-0.8-1.6,1.7-6.3,4.1-11c1.3,0.2,2.7,0.3,4.1,0.3c4.5,0,8.9,0.1,13.4,0c0.1,0,0.2,0,0.8-0.2c1.3-0.4,4.1-1.1,6.2-1.8
		c1.1-0.3,2.6-1.5,3.1-2.6c1.1-2.3,0.8-5-0.7-7c-1.5-2-3.6-2.5-5.6-2.8c-4.8-0.4-9.6-0.5-14.4-0.8l0.5-4.9c3.8,0.2,7.7,0.1,11.6-0.2
		c5.5-0.6,10.7-1.7,15.9-2.7c1.1-0.2,2.3-0.7,3.4-1.7c2.1-1.9,2.5-3.7,1.4-6c-1-1.7-2.1-3.4-3.4-4.9c-4-4.4-9.8-6.8-15.7-6.4
		c-10.5,0.5-20.6,0.6-31.2,3.8c-2.6,0.8-5.1,1.7-7.5,2.7c-1,0.4-1.8,1.2-2.2,2.2C656.6,497.7,656.7,500.1,658.8,502.6L658.8,502.6z
		 M534.7,508.4c15.8-1.9,31.6-3.6,47.4-5.6c1.6-0.3,3.5-0.8,5.5-2.6c2.1-2,2.6-3.8,2-5.8c-0.3-0.8-1.1-2-2.5-3.2
		c-0.7-0.6-1.4-1.1-2.2-1.5c-0.9-0.4-1.8-0.8-2.8-1c-4.7-1.1-9.5-1.6-14.3-1.6c-3.8,0-7.6,0.1-11.3,0.4c-8.4,0.7-16.8,2.5-24.8,5.2
		c-2.8,1-5.5,2.3-7.9,4c-1.2,0.8-2.3,1.6-3.4,2.6c-3.3,2.9-4.6,5.6-5.4,8.7c-0.6,3,0,6.2,1.6,8.8c0.8,1.3,1.9,2.4,3.1,3.3
		c2.4,1.8,5.4,2.3,8.2,2.8c5.5,1,11.2-0.2,16.7-0.2c5.1,0,10.3,0,15.5,1c4.6,0.9,9.1,2.7,13.2,5.1c1.4,1,1.7,2.3,1.1,3.7
		c-0.4,1-2.8,2.9-4.6,4.1c-0.7,0.5-1.5,0.9-2.2,1.2c-11.9,5.3-24.6,5.5-37.2,1.4c-0.4-0.2-0.7-0.4-1.1-1.1c-0.3-0.8-0.5-1.8,0.8-2.9
		c1.2-0.6,2.6-0.9,3.9-1c2.4-0.1,5.7,0.5,8.8,1.9c5,2.2,10.4,2.9,15.8,2.1c2.7-0.4,5.3-1.2,7.7-2.3c0.7-0.3,1.2-0.8,1.5-1.5
		c0.3-0.7,0.4-1.4,0.3-2.1c-0.2-1-1.1-2.6-3-4.2c-1.9-1.5-4.5-2.5-6.9-3.1c-1.2-0.3-2.4-0.5-3.6-0.6c-2.3-0.2-4.5-0.4-6.8-0.5
		c-4.8-0.2-9.6,0-14.4,0.6c-1.8,0.2-2.8,0.4-3.8,0.7c-1,0.3-2,0.7-3,1.1c-0.9,0.4-1.8,0.9-2.7,1.5c-3.8,2.7-4.9,5.5-5.3,8.5
		c-0.1,0.9,0,1.8,0.2,2.6c0.2,0.9,0.5,1.7,1.2,2.9c0.7,1.2,1.8,2.9,3.1,4.3c1.3,1.5,2.8,2.8,4.4,3.9c1.8,1.3,3.8,2.3,5.9,3.1
		c2.5,1,5.9,2,9.3,2.8c3.4,0.7,6.9,1.2,10.4,1.3c3.5,0.1,7-0.1,9.5-0.4c2.5-0.3,4-0.6,5.5-1.1c2.9-0.8,5.7-1.9,8.5-3.2
		c1.2-0.6,2.1-1.2,3.1-1.8c0.9-0.6,1.8-1.3,2.6-2.1c2.7-2.5,4.1-4.7,5-7.1c0.3-0.9,0.6-1.7,0.7-3.2c0.4-3,0.3-7.8-1.3-11.8
		c-0.7-1.9-1.7-3.8-2.9-5.5c-1.1-1.6-2.5-3-4-4.2c-3-2.3-6.7-3.7-10.5-4c-8.2-0.9-16.4-1.5-24.7-2.8
		C541.3,509.7,538,509.1,534.7,508.4L534.7,508.4z M229,523.7c0.6-4.1,1.4-8.9,2.5-13.6c0.6-2.4,1.3-4.8,1.9-6.9s1.2-4,1.8-5.9
		c0.5-1.9,1-3.8,1.3-5.1c0.5-2.4,0.5-3,0.5-4.5c0-1.2-0.2-2.4-1-3.6c-1.8-2.5-4.1-2.9-6.4-2.5c-1.8,0.3-3.2,1.9-4.4,3.4
		c-0.5,0.6-0.9,1.3-1.4,1.9c-0.6,0.9-1.1,1.9-1.6,2.8c-0.8,1.5-1.8,3.8-2.8,6.2c-2.9,6.9-5.1,14.5-6.5,21.6c-0.4,2.3-0.8,4.7-1,7
		c-0.4,4.5-0.5,8.9-0.4,13.1c0,2,0,4,0.2,5.8c0.2,1.8,0.5,3.2,1.1,4.7s1.3,2.8,2.3,3.9c1.8,2.2,3.9,3.8,5.6,4.6
		c2.9,1.4,5.5,1.6,8.6,1.2c4.1-0.4,8-2.6,12.1-5.4c0.9-0.6,1.9-1.3,3.2-2.4c3.5-2.8,6.8-5.6,10.1-8.6c-0.1,3.2-0.1,6.4,0.1,9.6
		c0.2,3.2,0.5,6.4,0.8,8.5c0.3,2.2,0.5,3.4,0.9,4.5c0.7,2.5,1.6,4.6,3.1,6.8c0.8,1.2,1.8,2.5,3,3.6c1.2,1.1,2.6,1.9,4.2,2.5
		c1.5,0.6,3.1,0.8,4.2,0.9c1.1,0.1,1.7-0.1,2.2-0.3c0.9-0.4,1.8-0.9,2.6-2.3c0.7-1.2,1.2-2.8,1.3-4.2c0-0.8,0-1.5-0.1-2.9
		c0-1.4,0-3.5,0-5.6c0-2.1,0-4.2,0-7.4c0-3.2,0-7.6,0.3-11.9c0.5-8.6,1.9-17.2,4-25.8c4.5-1.2,9-2.3,11.4-3c2.4-0.7,2.8-0.8,3.2-0.9
		s0.8-0.3,1.1-0.5c0.7-0.4,2-1.4,3.2-2.7c5-5.2,6.2-10.9,3.6-16.8c-0.7-1.8-1.7-3.6-2.8-5.2c-0.6-0.8-1.2-1.5-1.9-2.1
		c-0.7-0.6-1.5-1.1-2.4-1.5c-1-0.4-2-0.7-3-0.9c-2.5-0.4-6.3-0.4-9.5,0.9c-1.6,0.6-3,1.4-5.3,3.1c-2.9,2.2-5.7,4.5-8.4,6.9
		c-5.2-0.4-10.3-1.7-15.1-3.7c-1-0.4-2-1-2.8-1.7c-0.7-0.6-1.3-1.4-1.8-2.2c-0.5-0.8-0.7-1.8-1-2.3c-0.6-1.2-1.2-1.2-1.9-1.5
		c-0.7-0.2-1.5-0.2-2.3,0c-1.1,0.4-2.2,0.8-3.3,2.5c-0.6,0.9-1.3,2.4-1.6,3.5c-0.3,1.1-0.2,1.8-0.1,3c0.1,1.2,0.3,2.8,0.8,4.3
		c1,3.1,2.7,5.4,6.1,7.8c1.7,1.2,3.9,2.6,6.2,3.9c2.2,1.3,4.5,2.6,6.8,3.8c-1.6,5.6-2.9,11.4-3.8,17.2l-6.6-0.6l-15.3,5.1
		c-1.7,0.8-3.7,0.9-5.7-0.1c-1.4-0.9-1.6-2.2-0.6-3.6l0.2-0.7C228.5,527.6,228.7,525.7,229,523.7L229,523.7z M85.5,474.1l-0.1,0
		l2.8,1.1C87.4,474.7,86.5,474.3,85.5,474.1z"/>
	<path class="st0" d="M210.5,539.8c0-2.2-0.1-4.4-0.2-6.5c0-1-0.1-2.1-0.2-3.1c-0.1-0.7-0.2-1.5-1.3-7.1c-1.4-7.4-2.8-14.9-4.3-22.3
		c-1.2-6.2-1.7-8-2.2-9.8c-1.1-3.7-2.5-7.2-4.2-10.6c-0.3-0.5-0.8-1-1.3-1.3c-0.5-0.4-1.1-0.6-1.7-0.8c-1.2-0.3-3-0.1-4.9,0.6
		c-1,0.4-1.9,0.9-2.6,1.6c-1.8,1.5-2.8,4.1-4.6,6.1c-0.9,1.2-1.9,2.3-3,3.6c-1.2,1.4-2.4,2.8-3.5,4.3c-1.2,1.5-2.2,3.1-3.9,5.6
		c-1.6,2.5-3.8,6-5.8,9.6c-2,3.6-3.9,7.2-5.7,10.9l-4.8-0.4c2.7-7.9,4.5-16.2,5.4-24.5c0.9-8.5,0.9-17.4-0.3-26.6
		c-0.6-4.6-1.6-9.2-3-13.7c-1.4-4.5-3.1-8.9-4.4-12c-1-2.3-2.2-4.6-3.5-6.8c-2.3-3.8-4.9-7.4-7.8-10.6c-1.7-2-3.8-4.2-5.9-6.4
		c-2.1-2.2-4.2-4.5-5.8-6c-1.6-1.6-2.8-2.5-4-3.3c-1.2-0.8-2.6-1.4-4-1.9c-1.2-0.4-2.5-0.7-3.8-0.9c-1.7-0.2-2.1,0-3.1,0.6
		c-1.4,0.9-1.8,2.1-1.4,3.4c0.1,0.3,0.2,0.5,1.1,1.6c0.9,1.1,2.5,3,4.1,4.9c3.1,3.7,5.8,7.2,7.6,10.4c0.9,1.6,1.7,3.1,2.7,5.2
		c1,2.1,2.2,4.7,3.4,7.3c2.3,5.1,4.3,9.9,5.6,14.5c0.6,2.2,1.1,4.5,1.5,6.8c0.4,2.3,0.6,4.6,0.8,7.2c0.4,7.9,0,16.7-1.3,25
		c-1.3,8.5-3.9,16.7-7.8,24.3c-5.9,11.4-15.1,20.8-26.4,26.9c-3.9,2.1-8.2,3.3-12.6,3.3c-2.1,0-4.1-0.3-6-1.1
		c-0.9-0.4-1.8-0.8-2.6-1.4c-2.7-1.7-4.3-4.7-4.3-8c4.3-3.6,8.4-7.5,12.1-11.8c3.6-4.1,6.6-8.1,9-11.9c1.1-1.8,2.2-3.7,3.2-5.6
		c1-1.9,2-3.8,2.9-6.6c0.9-2.7,1.9-6.2,2.3-9.8c0.4-3.6,0.3-7.2-0.3-10.8c-0.6-3.2-1.5-6.3-2.7-9.4c-0.9-2.3-1.7-3.5-2.6-4.6
		c-0.9-1.1-2-2-3.2-2.8c-3.9-2.5-8.4-3-12.8-2.6c-1.5,0.1-3,0.4-5.6,1.4c-2.6,0.9-6.2,2.5-9.5,4.6c-3.3,2.1-6.2,4.8-8.7,7.9
		c-2.2,2.9-4.1,6-5.7,9.3c-1.3,2.8-1.9,4.9-2.5,7c-1.7,6-3.1,12.6-3.3,18.7c0,2,0,4,0.2,6c0.2,2,0.6,4,1.1,7.7
		c0.6,3.7,1.3,9.2,2.1,14.7c-1.3,1.5-3.1,2.5-5.1,3c-1,0.2-2,0.3-3.6,0c-1.6-0.3-3.9-0.8-6-1.8c-2.1-1-4-2.3-5.6-3.9
		c-1.6-1.6-3-3.5-4-5.6c-2.2-4.3-2.2-9.2-2.3-13.9c0-2.4,0.1-4.9,0.3-7.3c0.2-2.4,0.6-4.8,1.2-8c0.6-3.2,1.5-7.1,2.5-11
		c1-3.9,2.1-7.8,3.6-12.2c1.5-4.4,3.4-9.3,5.7-14s5-9.2,8-13.5c2.7-3.7,5.6-7.3,8.7-10.8c2.3-2.5,3.3-3.6,4.4-4.7l3-2.9
		c1.1-1,2.1-2,2.9-3.2c1.8-2.3,2.6-3.8,1.3-5.9c-0.8-1.2-2-1.4-3.1-1.5c-0.4,0-0.8,0-1.7,0.3c-2.7,0.8-5.4,2-7.8,3.4
		c-3.1,1.9-6,4.1-8.9,6.3c-1.6,1.2-3.2,2.5-4.7,3.9c-2.6,2.2-5,4.6-7.2,7.2c-1.1,1.3-2.1,2.6-3.7,4.9c-2.1,3-4,6.1-5.9,9.3
		c-2,3.5-3.9,7.1-5.6,10.8c-3,6.8-5.5,13.7-7.4,20.9c-0.8,3-1.5,6-2.2,9.1c-0.9,4.2-1.5,8.5-1.8,12.7c-0.6,7.9-0.1,15.7,2.8,23.8
		c0.7,1.9,1.5,3.7,2.6,5.3c1.1,1.7,2.3,3.2,3.7,4.6c2.9,2.8,6.2,4.7,9.2,6.1c1.6,0.7,3.2,1.4,4.8,1.9c4.6,1.6,8.9,2.4,13.1,1.6
		c3.8-0.7,6.9-2.4,10.1-3c1-0.3,2.1-0.5,3.1-0.6c1.2,1.4,2.4,2.8,3.7,4.2c1.2,1.4,2.5,2.7,4.2,4.4s4,3.6,6.5,5.1
		c2.5,1.6,5.2,2.8,8,3.7c2.8,0.9,5.7,1.4,9.7,1.4c4,0,9-0.4,13.9-1.5c4.9-1.1,9.7-2.8,14.1-5.1c4.5-2.3,8.6-5.2,11.5-7.4
		c2.9-2.2,4.4-3.7,6-5.3c3-3,5.8-6.2,8.4-9.5c2.1-2.7,3-4.2,4.2-6.3c0.6-1,1.1-2.1,1.6-3.2l4.4,1.3l-4.3,13.9c-1.2,3.6-0.8,7.6,1,11
		c0.6,1,1.3,1.9,2.1,2.6c1.7,1.5,4,2.2,6.1,2c1.1-0.1,2.1-0.4,2.9-0.8s1.3-0.7,1.7-1.1c2.1-1.9,2.6-3.9,3.5-6
		c1.6-4.3,3.4-8.6,4.9-12.9c0.2-0.6,0.4-1.2,0.5-1.8l18-0.3c0.2,2.2,0.4,4.3,0.5,5.5c0.1,1.2,0.2,1.6,0.2,1.9
		c0.1,0.8,0.4,1.5,0.7,2.2c0.3,0.7,0.8,1.7,1.3,2.7c0.5,1,1.1,2,1.6,2.8c1.1,1.7,1.9,2.3,2.9,3c2.2,1.2,4.5,1.9,6.9-1.4
		c0.7-1,1-1.8,1.3-2.7c0.4-1.2,0.7-2.8,0.8-4.2c0.1-0.7,0.1-1.5,0.1-3.1C210.6,544.7,210.6,542.2,210.5,539.8L210.5,539.8z
		 M76.5,522c-0.6-2.3-1-4.6-1.3-6.9c-0.6-4.7-0.5-9.5,0.1-14.3c0.3-2.6,0.9-5.5,1.5-8.4c0.6-2.9,1.3-5.7,1.8-7.6
		c0.8-3,1.9-6,3.5-8.7c0.2-0.4,0.5-0.7,0.8-1.1c0.8-0.6,1.4-1.2,2.6-1.1l-0.2-0.1c1.1-0.2,2.3,0.3,3,1.2c0.8,1.1,1.4,2.3,1.7,3.5
		c0.6,3.4,0.6,6.4,0.5,9.6c-0.1,1.3-0.2,2.6-0.4,4.5c-0.3,2.4-0.7,4.7-1.2,7c-0.5,2.5-1.1,4.9-1.8,7.3c-0.6,2-1.4,4-2.4,5.9
		c-1,1.8-2.2,3.4-3.5,4.9C79.7,519.5,78.1,520.9,76.5,522L76.5,522z M190.7,520.4c-2,1.5-3.8,1.1-5.2-0.7l4.2-8.3l1.8,8
		C191.2,519.8,191,520.1,190.7,520.4L190.7,520.4z"/>
	<path class="st0" d="M131.1,439.7c-1.2-2.2-2.3-4.4-3.4-6.6c-1.3,15.3-1.9,30.6-1.8,45.9h3.3C129.5,465.9,130.2,452.8,131.1,439.7z
		 M472.5,457.3l-7.8-0.2l11,22.7C473,472.6,471.9,465,472.5,457.3z M486.8,504.9c-2.5-7.5-6-15.3-12.1-22.8
		c-7.2-9.9-15.9-18.7-25.8-26c-6.7-5.6-13.9-10.6-21.3-15.2c-3.7-2.3-7.5-4.4-11.4-6.4c-9.5-4.8-19.3-8.8-29.5-12
		c-20.3-6.3-41.6-9.2-62.8-8.6c-7.5,0.1-15,1.3-22.2,3.5c-2.4,0.8-4.6,1.7-6.9,2.7c-4.5,2.1-8.6,4.7-12.5,7.8
		c-2.4,1.7-2.7,3.9-1.9,6.2c0.5,1.3,2,2.4,3.5,3.1c0.8,0.4,1.9,0.7,3.1,0.8c3.2,0.2,6.9-0.9,10.5-3c0.8-0.6,2.1-1.8,1.7-2.9
		c0-0.5-0.7-1.4-1.5-1.5c-1.2-0.3-2.6-0.2-3.8,0.2c2.2-1.5,4.7-2.6,7.3-3.2c1.3-0.3,2.6-0.5,5.8-0.7c3.2-0.2,8.3-0.3,13.4-0.2
		c10.2,0.3,20.4,1.8,30.3,4.4c8.7,2.5,17.2,5.3,25.7,8.4c7.6,2.8,15.2,5.8,22.6,9c5.8,2.5,9.2,4.2,12.4,5.9
		c6.5,3.5,12.7,7.6,18.6,12.2c3.6,3,7.2,6,10.6,9.2c3.4,3.2,6.6,6.6,9.9,10c5.1,5.7,9.2,12.2,12.1,19.3c2.5,5.9,2.8,12.5,0.9,18.7
		c-1,3-2.5,5.9-4.4,8.4c-2,2.5-4.4,4.6-8.2,7c-3.9,2.3-9.2,4.8-14.6,6.8c-11,4-22.6,5.8-34.3,5.4c-7.7-0.3-15.3-1-22.9-2.1
		l-0.4-41.3c15.1,1.3,30,4.4,44.4,9.2c-0.8,1.6-1.9,3-3.4,4.1c-1,0.8-2,1.7-3,2.7c-0.6,0.8-0.7,1.8-0.3,2.7c0.1,0.3,0.3,0.6,0.7,1
		s1,0.8,1.6,1.2c1.7,1,4.1,1.5,6.6,1.3c3.8-0.3,7.2-2.3,10.8-5.8c1-1.1,1.9-2.3,2.6-3.6c2.3-4.8,2.3-10.5-2-16
		c-0.8-1-1.6-1.9-2.5-2.7c-0.9-0.8-1.9-1.6-3-2.2c-5.7-3.2-11.8-5.7-18.1-7.4c-3.3-0.8-6.6-1.5-10-1.9c-7.8-1.1-15.6-1.8-23.5-1.9
		c-0.2-6.6-1.1-13.1-2.6-19.4c-0.4-2-1.1-3.9-1.8-5.7c-0.5-1.2-0.9-1.8-1.3-2.8c-0.6-1.2-2.1-2.7-3.5-3.3c-1.4-0.6-3-0.8-4.7,0.9
		c-0.3,0.3-0.5,0.7-0.7,1.1c-1.5,3.6-2.6,7.3-3.4,11.1c-0.4,1.9-0.7,3.8-1,6.1c-0.6,4.6-1.3,10.2-2.1,15.4c-7.1,0.8-14.1,2.2-21,4.2
		c-4.9,1.4-9.6,3.4-14.1,5.8c-3.4,1.8-6.5,4.1-9.2,6.7c-2.5,2.6-3.7,6.2-3.1,9.7c0.4,2.8,1.7,5.2,3.6,7.9c0.5,0.7,1.1,1.4,2.2,2.5
		c1.1,1.1,2.7,2.8,4.3,4.3c3.1,3.1,6,5.8,8.7,8c1.3,1.1,2.7,2.1,4,3.1c1.4,1,2.8,1.9,5.1,3.3c6.2,3.8,12.4,7.4,18.6,11l0.5,2.3
		l0.7,3c0.3,1.3,0.7,2.9,1.1,4.5c0.5,2,1.7,3.8,3.3,5.1c2.7,2.1,6,2.5,8.9,1.4c1.1-0.4,2.2-1,3.2-1.8c1-0.8,1.9-1.7,2.6-2.8
		s1.2-2.3,1.5-3.5c7.9,1.1,15.8,1.8,23.8,2.2c5.8,0.3,11.7,0.1,17.5-0.5c7.8-0.9,16.3-2.5,24.2-5.5c10.3-3.9,19.7-9.7,27.8-17.1
		c1.5-1.4,2.8-2.8,4.2-4.4c2.6-3.1,4.9-6.4,6.8-9.9C488.4,523.5,489.5,514.2,486.8,504.9L486.8,504.9z M341.8,537.7
		c-2.4-1.2-4.7-2.6-6.8-4c-2.1-1.3-3.8-2.6-5.6-4c-3.2-2.6-6.2-5.4-8.8-8.5c-0.8-1-1-1.3-1.1-1.6c-0.3-1,0-2.2,0.8-2.9
		c0.3-0.2,0.6-0.4,1.9-0.9c6-2.3,12.2-3.9,18.6-4.9c1.3-0.2,2-0.3,3.5-0.4c2-0.2,4-0.3,6-0.4c2.2-0.1,4.5-0.2,6.7-0.2l0,33.1
		C351.8,541.8,346.6,540.1,341.8,537.7z M550.3,442.2c-0.1-1.3-0.5-2.6-1.1-3.7c-0.5-1-1.2-1.9-2.1-2.7c-2.5-2.4-6-3.4-9.4-2.6
		c-1-2.5-3.2-4.4-5.8-5c-2.9-0.7-5.9-1.1-8.8-1.2c-1.9,0-3.8,0.1-5.7,0.4c-2.7,0.4-6.7,1.1-10.5,2.2c-3.8,1.1-7.6,2.6-11.1,4.5
		c-3.5,1.9-6.9,4-10.1,6.5c-1.3,1.1-2.5,2.2-3.6,3.4c-4.8,5.3-7.7,11.2-7.8,16.9c0,1.5,0.1,3,0.3,4.2c0.4,2.3,0.9,4,1.7,5.9
		c0.8,2,2,4.2,3.3,6.6l1.9,3.5c0.5,0.9,0.7,1.3,1,1.7c0.3,0.4,0.7,0.7,1.2,1c1,0.6,2.7,0.7,4.4,0.5c1-0.1,1.9-0.5,2.8-0.9
		c0.9-0.4,1.7-1,2.4-1.8c0.7-0.8,1.2-1.8,1.8-2c0.7-0.2,1.4,0.4,2.2,0.9c0.8,0.4,1.6,0.7,2.5,0.9c0.8,0.2,1.7,0.3,3.1,0.3
		c1.4,0,3.2-0.1,4.9-0.2c1.6-0.1,3-0.2,3.9-0.3c0.9-0.1,1.5-0.2,2.6-0.4c2.3-0.4,6.4-1.3,9.7-2.7c3.3-1.3,7.2-3.5,11.1-6.6
		c3.9-3.2,7.4-6.9,10.2-11c2.8-4,4.4-8,4.9-12.2C550.5,446.2,550.5,444.2,550.3,442.2L550.3,442.2z M496.2,452.7
		c-2.9,2.7-5.7,5.5-8.2,8.5c1.7-7,6.3-13,12.6-16.6c4.7-2.7,9.8-4.4,15.1-5.3C508.6,442.9,502.1,447.4,496.2,452.7L496.2,452.7z
		 M534.9,451.3c-0.5,2.9-2.2,5.5-4.6,7.1c-2,1.3-4,2.6-6.1,3.8c-4.1,2.2-8.3,4.5-12.7,5.3c-4.3,0.9-8.8,0.7-13.1-0.5
		c6.3-9.1,15.3-15.8,25.8-19.2c2.5-0.8,5.2-1,7.8-0.6C533.9,447.6,535.2,449.4,534.9,451.3C534.9,451.3,534.9,451.3,534.9,451.3z
		 M788.2,515.7c-0.1-2.5-0.5-5-1.2-7.4c-1.5-4.8-4.2-9.2-7.8-12.7c-3.5-3-7.9-3.9-12.2-2.6c-1.4,0.4-2.7,1.1-6,3.6
		c-3.4,2.5-8.8,6.9-14,11.4c-5.2,4.6-10.3,9.3-15.2,14.3c1.1-3.2,2.3-6.3,3.8-9.4c1.4-3.1,3-6.1,4.2-8.3c1.2-2.2,2-3.6,2.7-5.1
		c0.7-1.5,1.4-3,1.8-4.1c0.8-2.1,0.8-2.9,0.8-4.4c0-0.7-0.1-1.3-0.3-1.8c-0.1-0.5-0.3-0.9-0.5-1.2c-1.6-1.9-3.8-1.2-5.8,0.1
		c-0.6,0.4-1.1,0.9-1.6,1.5c-2.5,2.6-5,5.3-7.3,8c-3.9,4.6-7.1,9.7-9.7,15.1c-1.3,2.7-2.4,5.5-3.1,7.4c-0.7,1.9-1,3-1.2,4.1
		c-0.5,2.3-0.7,4.6-0.5,6.9c0.1,2.9,0.7,6.7,1.6,10c0.4,1.7,1,3.4,1.6,5c-2.4,5-4.5,10.2-6.3,15.5c-1.8,5.3-3.4,10.6-4.6,16
		c-1.1,4.7-1.9,9.5-2.6,14.2c-0.5,3.3-0.5,4.5-0.4,5.6c0.3,5,2.7,10,7.5,15.1c3.3,3.1,7.4,3,11.5-0.5c2.2-8.4,4.4-16.8,6.4-25.2
		l2-6.7c0.7-2.2,1.7-4.4,3-7.6c1.3-3.3,3.1-7.6,4.9-12c4-0.7,7.9-1.6,11.8-2.7c2.9-0.8,5.6-1.8,8.2-3.2c1.3-0.7,2.5-1.4,4.1-2.5
		c1.6-1.1,3.6-2.6,5.6-4.2c1.9-1.5,3.7-3.1,5.5-4.7c2.8-2.6,5.4-5.5,7.5-8.6C786.7,528.1,788.5,522.1,788.2,515.7L788.2,515.7z
		 M771.3,525c-1.1,1.7-2.4,3.3-4,4.7c-2.8,2.3-5.6,4.4-8.6,6.3c-2.1,1.4-4.7,1.6-6.9,0.5c4.2-9.4,10.1-18,17.5-25.1
		c1.2-1.1,2.2-1,3.2-0.7c1,0.2,2,1.7,2,2.6C774.6,517.4,773.5,521.5,771.3,525L771.3,525z M189.2,635.7c-0.3-2.1-1-4.1-2-5.9
		c-0.6-1.1-1.4-2.2-2.3-3.1c-2.7-2.8-5.9-4-9-4.6c-1.7-0.3-3.4-0.5-5.1-0.5h-22v6.7h6.2v39.6h-6.2v6.7h20.2v-6.7h-6.2v-12.8h9.4
		c4.1-0.1,8.3-0.5,12.8-5.2C188.3,646.1,189.9,640.9,189.2,635.7z M178,645.9c-2.4,1.9-4.6,2.1-6.8,2.1h-8.5v-19h8.2
		c2.7,0,5.5,0.5,7.9,2.9c1.3,1.4,2.2,3.2,2.5,5.1C181.8,640.3,180.8,643.4,178,645.9L178,645.9z"/>
</g>
</svg>
